<?xml version="1.0" encoding="utf-8" ?>
<svg baseProfile="full" height="4096" version="1.1" width="4096" xmlns="http://www.w3.org/2000/svg" xmlns:ev="http://www.w3.org/2001/xml-events" xmlns:xlink="http://www.w3.org/1999/xlink"><defs /><path d="M 1887,706 1886,707 1880,707 1879,708 1877,708 1877,711 1878,711 1880,713 1878,715 1873,715 1872,716 1869,716 1868,715 1863,715 1862,716 1859,716 1858,717 1857,716 1855,716 1854,717 1843,717 1842,718 1840,718 1839,717 1838,717 1837,718 1830,718 1829,719 1816,719 1815,720 1812,720 1811,721 1809,721 1807,723 1806,723 1806,724 1805,725 1804,725 1802,727 1799,727 1798,728 1793,728 1792,729 1788,729 1787,730 1785,730 1784,729 1783,730 1769,730 1768,731 1767,730 1763,730 1762,731 1758,731 1757,732 1756,732 1755,733 1752,733 1751,734 1750,734 1749,735 1748,735 1747,736 1745,736 1745,737 1744,738 1743,738 1742,739 1740,739 1739,740 1737,740 1736,741 1735,741 1734,742 1731,742 1730,743 1727,743 1726,744 1724,744 1723,745 1715,745 1714,744 1713,745 1709,745 1708,746 1707,745 1706,745 1705,746 1703,746 1702,747 1700,747 1699,748 1698,748 1697,749 1696,749 1696,750 1694,752 1692,752 1690,754 1689,754 1688,755 1683,755 1682,756 1680,756 1679,757 1677,757 1676,758 1665,758 1664,759 1661,759 1660,760 1659,760 1658,761 1657,761 1656,762 1651,762 1650,763 1648,763 1644,767 1643,767 1642,768 1641,768 1640,769 1638,769 1637,770 1635,770 1634,771 1630,771 1629,772 1621,772 1620,773 1619,773 1618,774 1617,774 1616,775 1615,775 1614,776 1614,777 1612,779 1611,779 1610,780 1607,780 1604,783 1600,783 1599,784 1595,784 1594,785 1592,785 1591,786 1589,786 1588,787 1585,787 1584,788 1582,788 1581,789 1580,789 1579,790 1580,791 1579,792 1577,792 1576,793 1575,793 1574,794 1573,794 1572,795 1570,795 1569,796 1568,796 1567,797 1563,797 1562,798 1561,798 1560,799 1557,799 1556,800 1554,800 1553,801 1552,801 1550,803 1550,804 1549,805 1548,804 1549,805 1548,806 1547,806 1546,807 1544,807 1543,808 1542,808 1541,809 1537,809 1536,810 1535,810 1533,812 1529,812 1528,813 1527,813 1523,817 1522,817 1522,818 1518,822 1515,822 1514,823 1507,823 1506,824 1505,824 1504,825 1503,825 1499,829 1500,830 1496,834 1495,834 1494,835 1492,835 1491,836 1484,836 1483,837 1482,837 1481,838 1479,838 1478,839 1476,839 1475,840 1474,840 1470,844 1470,845 1469,846 1469,847 1468,848 1467,848 1466,849 1465,849 1464,850 1454,850 1453,851 1452,851 1451,852 1450,852 1448,854 1448,858 1446,860 1445,860 1444,861 1442,861 1441,862 1440,862 1439,863 1438,863 1437,864 1436,864 1435,865 1434,865 1433,866 1429,866 1428,867 1426,867 1424,869 1425,870 1424,871 1424,873 1423,874 1422,874 1421,875 1420,875 1419,876 1417,876 1416,877 1415,877 1412,880 1411,880 1410,881 1409,881 1408,882 1404,882 1400,886 1400,887 1397,890 1396,890 1394,892 1391,892 1390,893 1389,893 1386,896 1385,896 1384,897 1383,896 1383,898 1382,899 1382,901 1380,903 1377,903 1374,906 1373,906 1372,907 1370,907 1369,908 1364,908 1362,910 1362,911 1357,916 1357,917 1356,918 1354,918 1353,919 1352,918 1351,919 1350,919 1348,921 1347,921 1345,923 1344,923 1342,925 1341,925 1338,928 1338,930 1336,932 1335,932 1334,933 1333,933 1332,934 1330,934 1329,935 1326,935 1323,938 1323,939 1321,941 1320,941 1320,942 1315,947 1313,947 1312,948 1311,948 1310,949 1308,949 1307,950 1306,950 1305,951 1305,953 1304,954 1304,956 1303,957 1302,957 1301,958 1298,958 1296,960 1295,960 1292,963 1291,963 1290,964 1289,964 1288,965 1288,966 1285,969 1285,970 1282,973 1281,973 1278,976 1276,976 1275,977 1274,977 1273,978 1272,978 1271,979 1271,980 1267,984 1266,984 1260,990 1255,990 1253,992 1253,994 1252,995 1252,996 1250,998 1249,998 1247,1000 1246,1000 1244,1002 1243,1001 1242,1002 1241,1002 1239,1004 1239,1008 1234,1013 1233,1013 1232,1014 1231,1014 1230,1013 1226,1017 1225,1017 1223,1019 1223,1020 1222,1021 1222,1023 1221,1024 1221,1025 1219,1027 1217,1027 1216,1028 1214,1028 1213,1029 1212,1029 1209,1032 1209,1037 1207,1039 1206,1039 1205,1040 1204,1040 1201,1043 1200,1043 1199,1044 1197,1044 1197,1045 1196,1046 1196,1049 1195,1050 1195,1051 1193,1053 1192,1053 1191,1054 1190,1054 1189,1055 1188,1055 1187,1056 1185,1056 1184,1057 1184,1059 1183,1060 1183,1061 1178,1066 1177,1066 1175,1068 1174,1068 1172,1070 1171,1070 1171,1072 1170,1073 1170,1076 1166,1080 1164,1080 1162,1082 1161,1082 1160,1083 1160,1084 1159,1085 1158,1085 1158,1087 1157,1088 1157,1090 1156,1091 1156,1092 1152,1096 1151,1096 1150,1097 1148,1097 1145,1100 1145,1102 1144,1103 1144,1104 1141,1107 1141,1109 1139,1111 1138,1111 1135,1114 1134,1114 1134,1116 1133,1117 1133,1118 1131,1120 1131,1121 1130,1122 1129,1122 1127,1124 1127,1125 1126,1126 1126,1127 1124,1129 1122,1129 1121,1130 1120,1130 1120,1131 1119,1132 1119,1135 1116,1138 1115,1138 1113,1140 1113,1141 1112,1142 1112,1143 1110,1145 1109,1145 1105,1149 1104,1149 1102,1151 1102,1152 1101,1153 1101,1156 1100,1157 1100,1159 1099,1160 1099,1161 1098,1162 1095,1162 1093,1164 1092,1164 1092,1165 1091,1166 1091,1167 1090,1168 1090,1170 1089,1171 1089,1172 1088,1173 1088,1174 1086,1176 1086,1177 1085,1178 1084,1178 1081,1181 1079,1181 1078,1182 1077,1182 1076,1183 1076,1187 1072,1191 1070,1191 1068,1193 1068,1195 1067,1196 1066,1196 1065,1197 1065,1198 1063,1200 1063,1201 1061,1203 1061,1204 1058,1207 1058,1208 1057,1209 1058,1210 1057,1211 1057,1213 1056,1214 1055,1214 1053,1216 1051,1216 1049,1218 1049,1219 1048,1220 1048,1222 1047,1223 1048,1224 1047,1225 1047,1226 1046,1227 1046,1228 1044,1230 1044,1231 1042,1233 1040,1233 1038,1235 1037,1235 1037,1236 1036,1237 1036,1238 1032,1242 1032,1243 1031,1244 1031,1245 1030,1246 1029,1246 1029,1247 1028,1248 1029,1249 1028,1250 1027,1250 1028,1251 1028,1253 1026,1255 1025,1255 1024,1256 1023,1255 1020,1258 1020,1261 1019,1262 1020,1263 1019,1264 1019,1267 1018,1268 1018,1270 1012,1276 1011,1276 1009,1278 1009,1279 1008,1280 1008,1283 1007,1284 1007,1285 1006,1286 1006,1287 1005,1288 1005,1289 1004,1290 1004,1293 1001,1296 999,1296 998,1297 998,1298 994,1302 994,1303 993,1304 993,1306 992,1307 992,1309 991,1310 991,1311 990,1312 990,1314 987,1317 987,1318 986,1319 986,1321 983,1324 982,1324 982,1325 981,1326 981,1329 980,1330 980,1331 979,1332 979,1334 978,1335 978,1336 977,1337 977,1340 976,1341 975,1341 975,1342 973,1344 972,1344 972,1347 970,1349 970,1350 969,1351 968,1351 968,1352 967,1353 967,1356 966,1357 966,1360 965,1361 965,1366 963,1368 962,1368 961,1369 961,1370 960,1371 960,1372 959,1373 958,1373 957,1374 956,1374 956,1375 955,1376 955,1377 954,1378 954,1383 953,1384 953,1391 952,1392 952,1394 951,1395 951,1396 947,1400 947,1401 945,1403 944,1403 942,1405 942,1406 941,1407 941,1409 940,1410 940,1421 939,1422 939,1424 938,1425 938,1426 935,1429 935,1430 933,1432 932,1432 931,1433 931,1434 929,1436 929,1439 928,1440 928,1445 927,1446 927,1447 926,1448 926,1449 924,1451 924,1453 923,1454 923,1458 922,1459 922,1460 919,1463 918,1463 916,1465 916,1467 915,1468 915,1473 914,1474 914,1475 913,1476 913,1488 912,1489 912,1491 911,1492 911,1494 910,1495 910,1497 909,1498 909,1499 907,1501 907,1502 905,1504 904,1504 903,1505 903,1506 902,1507 902,1511 901,1512 901,1514 900,1515 900,1516 899,1517 899,1522 900,1523 900,1524 899,1525 899,1528 898,1529 898,1536 897,1537 897,1540 896,1541 896,1546 893,1549 892,1549 891,1550 890,1550 889,1551 889,1552 886,1555 886,1556 885,1557 885,1561 884,1562 884,1574 883,1575 884,1576 883,1577 883,1579 881,1581 881,1584 879,1586 880,1587 878,1589 878,1590 877,1591 876,1591 877,1592 876,1593 875,1593 875,1594 874,1595 874,1596 873,1597 873,1598 872,1599 872,1603 871,1604 871,1612 870,1613 871,1614 871,1615 870,1616 870,1624 869,1625 869,1632 868,1633 868,1634 867,1635 867,1636 866,1637 866,1639 864,1641 865,1642 865,1644 864,1645 864,1649 862,1651 861,1650 861,1651 860,1652 860,1653 859,1654 859,1656 858,1657 858,1659 857,1660 857,1666 856,1667 856,1674 857,1675 857,1680 856,1681 856,1694 855,1695 855,1697 854,1698 854,1705 853,1706 853,1707 852,1708 853,1709 853,1710 852,1711 852,1714 851,1715 851,1716 849,1718 849,1719 847,1721 847,1727 846,1728 846,1734 845,1735 845,1739 844,1740 844,1748 843,1749 843,1751 844,1752 843,1753 843,1759 842,1760 842,1765 843,1766 842,1767 842,1770 841,1771 841,1773 842,1774 842,1787 841,1788 841,1789 842,1790 841,1791 841,1792 840,1793 841,1794 841,1797 840,1798 840,1803 841,1804 841,1805 840,1806 840,1825 839,1826 840,1827 840,1834 839,1835 839,1839 840,1840 840,1841 839,1842 839,1867 838,1868 839,1869 838,1870 839,1871 839,1874 838,1875 838,1884 839,1885 839,1887 838,1888 838,1890 839,1891 838,1892 839,1893 839,1903 838,1904 839,1905 839,1919 840,1920 840,1922 839,1923 840,1924 840,1935 839,1936 839,1937 840,1938 840,1953 841,1954 840,1955 840,1957 841,1958 841,1966 840,1967 841,1968 841,1981 842,1982 842,1986 843,1987 842,1988 842,1990 843,1991 843,1994 842,1995 843,1996 842,1997 842,2007 844,2009 844,2010 843,2011 844,2012 844,2028 845,2029 845,2032 846,2033 846,2038 847,2039 847,2046 848,2047 848,2049 849,2048 850,2049 850,2050 849,2051 850,2052 849,2053 850,2053 851,2054 851,2057 852,2058 852,2060 851,2061 852,2060 853,2061 853,2068 854,2069 853,2070 853,2072 854,2072 855,2073 854,2074 855,2075 855,2078 856,2079 856,2080 855,2081 856,2082 856,2104 857,2105 857,2110 858,2111 858,2113 859,2114 859,2116 860,2117 860,2118 861,2119 861,2120 862,2121 862,2123 864,2125 864,2126 865,2127 865,2130 867,2132 867,2133 868,2134 868,2136 869,2137 869,2147 870,2148 869,2149 870,2150 870,2158 871,2159 871,2168 872,2169 872,2173 873,2174 872,2175 873,2176 873,2178 874,2179 874,2180 876,2182 875,2183 876,2184 876,2185 878,2187 879,2187 881,2189 881,2194 882,2195 882,2198 883,2199 883,2204 884,2205 884,2213 885,2214 885,2221 886,2222 886,2224 888,2226 888,2227 891,2230 893,2230 894,2231 894,2235 896,2237 896,2238 897,2239 897,2246 898,2247 898,2249 899,2250 898,2251 899,2252 899,2254 900,2255 899,2256 900,2257 900,2263 901,2264 900,2265 902,2267 902,2268 903,2269 903,2270 906,2273 905,2274 906,2274 910,2278 910,2280 911,2281 911,2282 912,2283 911,2284 912,2285 912,2286 911,2287 911,2288 912,2289 912,2290 913,2291 913,2295 914,2296 914,2304 915,2305 915,2307 917,2309 917,2310 918,2311 919,2310 920,2311 920,2313 921,2313 922,2314 922,2318 923,2319 923,2321 926,2324 926,2330 927,2331 927,2334 928,2335 928,2336 929,2337 929,2339 931,2341 931,2344 932,2345 932,2346 937,2351 937,2352 938,2353 938,2355 939,2356 939,2358 940,2359 940,2361 941,2362 941,2364 942,2365 941,2366 941,2372 942,2373 942,2374 943,2375 943,2376 945,2378 945,2379 946,2380 948,2380 949,2381 948,2382 952,2386 952,2388 954,2390 954,2400 955,2401 955,2403 956,2404 956,2405 957,2406 957,2407 959,2409 960,2409 964,2413 964,2414 965,2415 965,2416 966,2417 966,2418 967,2419 967,2425 968,2426 968,2428 969,2429 970,2429 971,2430 970,2431 971,2431 972,2432 971,2433 973,2435 973,2436 977,2440 977,2442 978,2442 979,2443 979,2444 980,2445 980,2451 981,2452 981,2453 982,2454 982,2455 989,2462 989,2463 990,2464 990,2466 991,2467 991,2469 992,2470 992,2472 993,2473 993,2474 994,2475 994,2476 996,2478 996,2479 997,2479 998,2480 998,2482 999,2483 1000,2482 1001,2483 1001,2484 1003,2486 1003,2487 1004,2488 1004,2489 1005,2490 1005,2492 1006,2493 1006,2495 1007,2496 1007,2497 1008,2498 1008,2500 1010,2502 1010,2503 1013,2506 1014,2506 1016,2508 1016,2509 1018,2511 1018,2512 1020,2514 1020,2517 1021,2518 1021,2519 1022,2519 1023,2520 1023,2521 1024,2522 1024,2524 1026,2526 1027,2526 1031,2530 1031,2532 1032,2533 1031,2534 1031,2536 1032,2537 1032,2538 1036,2542 1038,2542 1040,2544 1039,2545 1040,2544 1041,2544 1042,2545 1042,2546 1043,2546 1044,2547 1044,2549 1048,2553 1048,2555 1049,2556 1049,2559 1050,2560 1050,2561 1051,2562 1052,2562 1055,2565 1056,2565 1057,2566 1057,2567 1060,2570 1060,2573 1061,2574 1061,2578 1062,2579 1062,2580 1063,2581 1064,2581 1065,2582 1065,2584 1068,2587 1070,2587 1073,2590 1073,2591 1075,2593 1075,2594 1076,2595 1076,2598 1077,2599 1077,2600 1079,2602 1081,2602 1086,2607 1086,2608 1087,2609 1087,2610 1089,2612 1089,2614 1092,2617 1092,2618 1093,2619 1093,2621 1094,2621 1095,2622 1098,2622 1100,2624 1100,2628 1101,2629 1101,2630 1103,2632 1104,2632 1109,2637 1109,2639 1110,2639 1115,2644 1115,2646 1116,2646 1118,2648 1119,2648 1120,2649 1120,2653 1121,2654 1124,2654 1125,2655 1125,2656 1127,2658 1127,2659 1128,2660 1128,2661 1129,2662 1130,2661 1131,2662 1131,2663 1132,2664 1132,2665 1133,2665 1134,2666 1134,2667 1135,2667 1137,2669 1137,2670 1139,2672 1140,2672 1141,2673 1142,2673 1144,2675 1144,2679 1145,2680 1145,2687 1144,2688 1144,2689 1142,2691 1141,2691 1140,2692 1138,2692 1136,2694 1135,2694 1132,2697 1132,2698 1128,2702 1127,2702 1127,2703 1126,2704 1126,2705 1123,2708 1122,2708 1119,2711 1119,2712 1117,2714 1117,2715 1116,2716 1115,2716 1114,2717 1113,2717 1112,2718 1111,2718 1109,2720 1110,2721 1105,2726 1105,2727 1103,2729 1102,2729 1098,2733 1097,2733 1096,2732 1096,2733 1095,2734 1094,2734 1094,2735 1093,2736 1093,2738 1092,2739 1092,2740 1088,2744 1087,2744 1085,2746 1084,2745 1083,2746 1080,2746 1080,2747 1079,2748 1078,2748 1077,2749 1076,2749 1075,2748 1074,2749 1073,2748 1073,2746 1072,2746 1071,2745 1071,2744 1070,2743 1069,2743 1062,2736 1062,2735 1056,2729 1056,2727 1055,2726 1055,2725 1054,2724 1051,2724 1049,2722 1049,2720 1048,2719 1048,2718 1047,2718 1046,2717 1045,2717 1043,2715 1043,2714 1042,2713 1042,2712 1041,2711 1041,2707 1037,2703 1036,2703 1030,2697 1030,2693 1029,2692 1029,2691 1026,2688 1025,2688 1023,2686 1023,2685 1022,2685 1021,2684 1021,2682 1020,2681 1020,2680 1018,2678 1018,2676 1014,2672 1013,2672 1012,2671 1012,2669 1011,2668 1010,2668 1006,2664 1006,2662 1005,2661 1005,2659 1003,2657 1003,2656 1002,2655 1001,2655 1000,2654 1000,2653 999,2652 997,2652 994,2649 994,2648 993,2647 991,2647 990,2646 990,2643 989,2642 989,2641 988,2640 988,2639 987,2638 988,2637 986,2635 986,2634 985,2633 983,2633 981,2631 980,2631 979,2630 979,2629 978,2628 978,2623 977,2622 974,2622 973,2621 973,2616 972,2615 971,2615 970,2614 968,2614 967,2613 967,2612 966,2611 965,2611 964,2610 961,2610 960,2609 956,2609 955,2608 954,2609 952,2609 951,2608 947,2608 946,2609 940,2609 939,2610 938,2610 936,2612 936,2613 930,2619 930,2620 929,2621 926,2621 925,2622 923,2622 921,2624 918,2624 916,2626 916,2627 911,2632 910,2632 907,2635 906,2635 905,2636 904,2636 903,2637 902,2637 901,2638 900,2637 899,2638 898,2638 894,2642 892,2642 890,2644 890,2646 889,2647 888,2647 887,2648 886,2648 885,2649 882,2649 881,2650 880,2650 879,2651 878,2651 878,2652 877,2653 875,2653 873,2655 871,2655 869,2657 868,2657 867,2658 865,2658 864,2657 862,2657 861,2658 859,2658 858,2657 856,2657 853,2654 852,2654 851,2653 850,2654 849,2654 848,2653 847,2654 846,2653 843,2653 842,2652 840,2652 839,2651 839,2650 837,2650 836,2649 832,2649 831,2648 828,2648 827,2647 825,2647 824,2646 822,2646 821,2645 821,2644 820,2643 819,2643 818,2642 817,2642 816,2641 809,2641 808,2640 802,2640 801,2639 799,2639 798,2640 797,2639 785,2639 784,2638 783,2639 782,2638 778,2638 777,2637 765,2637 764,2636 762,2636 761,2635 760,2635 759,2634 757,2634 756,2633 751,2633 750,2632 748,2632 747,2631 747,2630 746,2631 745,2631 743,2629 742,2630 740,2628 739,2628 738,2627 737,2628 736,2627 735,2627 734,2626 729,2626 728,2625 712,2625 711,2624 696,2624 695,2623 693,2623 692,2624 691,2624 690,2623 660,2623 659,2622 658,2623 657,2622 640,2622 639,2621 626,2621 625,2620 625,2619 625,2620 624,2621 623,2620 591,2620 590,2619 588,2621 573,2621 572,2622 571,2622 570,2621 569,2622 553,2622 552,2623 503,2623 502,2624 501,2623 500,2624 484,2624 483,2625 478,2625 477,2626 471,2626 470,2627 469,2626 468,2627 465,2627 464,2628 463,2628 462,2629 461,2628 460,2628 457,2631 456,2631 455,2630 454,2631 453,2631 451,2633 450,2633 449,2634 446,2634 445,2635 444,2635 443,2636 439,2636 438,2637 435,2637 434,2638 433,2637 428,2637 427,2638 425,2638 424,2639 423,2638 421,2638 420,2639 418,2639 417,2640 416,2640 415,2639 409,2639 408,2640 404,2640 403,2641 401,2641 400,2642 398,2642 397,2643 395,2643 393,2645 392,2644 392,2645 391,2646 389,2646 388,2645 387,2646 385,2646 385,2647 384,2648 382,2648 381,2649 374,2649 373,2650 367,2650 366,2651 363,2651 362,2652 361,2652 360,2653 359,2652 359,2653 358,2654 357,2653 355,2653 353,2655 352,2654 351,2655 350,2654 349,2655 348,2655 347,2656 346,2656 345,2655 343,2655 342,2656 337,2656 336,2657 333,2657 331,2659 330,2658 329,2659 327,2659 326,2660 324,2660 323,2661 321,2661 320,2662 319,2662 318,2663 317,2663 316,2664 314,2664 313,2665 311,2665 310,2666 309,2666 308,2667 307,2667 305,2669 304,2668 303,2669 302,2668 301,2669 300,2669 300,2670 299,2671 298,2671 296,2673 293,2673 292,2674 290,2674 289,2675 288,2675 287,2676 286,2676 285,2677 283,2677 282,2678 281,2678 280,2679 276,2679 275,2680 273,2680 272,2681 271,2681 271,2682 270,2683 269,2682 268,2682 267,2683 266,2683 265,2684 264,2684 262,2686 259,2686 258,2687 257,2686 256,2686 256,2687 255,2688 254,2688 253,2687 251,2689 250,2688 250,2689 249,2690 248,2689 245,2692 243,2692 242,2693 241,2693 240,2694 239,2694 238,2695 237,2695 238,2696 236,2698 235,2697 234,2698 233,2697 232,2697 232,2698 231,2699 229,2699 228,2700 226,2700 225,2701 223,2701 222,2702 221,2702 221,2703 220,2704 219,2703 218,2703 217,2704 216,2704 215,2705 214,2705 211,2708 211,2710 209,2712 208,2712 207,2713 206,2713 203,2716 199,2716 198,2717 194,2717 193,2718 190,2718 189,2719 188,2719 186,2721 187,2722 181,2728 180,2728 179,2729 178,2729 177,2730 172,2730 171,2731 170,2731 169,2732 165,2732 164,2733 163,2733 159,2737 160,2738 157,2741 156,2741 155,2742 154,2742 153,2743 152,2743 151,2744 148,2744 147,2745 146,2745 145,2744 144,2745 141,2745 138,2748 138,2775 137,2776 137,2778 138,2779 138,2780 139,2780 140,2781 141,2781 142,2782 147,2782 148,2783 151,2783 153,2785 153,2786 154,2787 154,2788 156,2790 159,2790 160,2791 161,2791 162,2790 164,2790 165,2789 166,2789 169,2786 170,2786 172,2784 175,2784 176,2783 187,2783 188,2782 195,2782 196,2781 213,2781 214,2780 222,2780 223,2779 231,2779 232,2778 237,2778 238,2777 240,2777 241,2776 247,2776 248,2775 252,2775 253,2776 257,2776 258,2775 259,2775 260,2776 269,2776 270,2777 285,2777 286,2778 290,2778 291,2779 292,2778 293,2779 299,2779 300,2780 310,2780 311,2781 314,2781 315,2780 316,2781 333,2781 334,2782 342,2782 343,2783 348,2783 349,2784 350,2784 351,2785 351,2786 352,2786 353,2787 353,2788 354,2789 355,2789 357,2791 358,2791 359,2792 361,2792 362,2793 364,2793 365,2794 366,2794 367,2795 375,2795 376,2796 377,2795 378,2795 379,2796 391,2796 392,2797 397,2797 399,2799 400,2799 402,2801 402,2802 403,2802 406,2805 407,2805 408,2806 409,2806 410,2807 412,2807 413,2808 416,2808 417,2809 418,2808 419,2809 427,2809 428,2810 429,2809 433,2809 435,2811 436,2811 437,2812 439,2812 440,2813 441,2813 442,2814 442,2815 443,2815 445,2817 446,2817 448,2819 450,2819 452,2821 453,2821 454,2822 455,2822 456,2823 457,2823 458,2824 464,2824 465,2825 467,2825 468,2826 470,2826 471,2827 473,2827 475,2829 475,2830 476,2831 477,2831 479,2833 484,2833 486,2835 487,2835 488,2836 490,2836 491,2837 493,2837 497,2841 498,2841 502,2845 504,2845 506,2847 507,2847 508,2846 510,2846 511,2847 511,2848 512,2848 513,2849 513,2850 514,2851 516,2851 517,2852 519,2852 520,2853 523,2853 525,2855 525,2856 526,2857 526,2860 527,2861 526,2862 526,2864 524,2866 523,2866 522,2867 521,2867 520,2868 519,2868 518,2869 517,2869 516,2870 515,2870 514,2871 512,2871 511,2872 507,2872 506,2873 504,2873 502,2875 502,2876 500,2878 499,2878 498,2879 497,2879 496,2880 493,2880 491,2882 490,2882 487,2885 487,2886 485,2888 485,2889 484,2890 483,2889 482,2889 481,2890 480,2889 476,2893 474,2893 472,2895 471,2895 470,2896 469,2896 468,2897 467,2897 466,2898 465,2898 464,2899 463,2899 462,2900 462,2902 459,2905 455,2905 451,2909 450,2909 449,2910 446,2910 443,2913 443,2914 442,2915 442,2916 439,2919 437,2919 436,2920 434,2920 433,2921 432,2921 431,2922 429,2922 427,2924 427,2927 426,2928 426,2929 424,2931 423,2931 420,2934 417,2934 416,2935 414,2935 413,2936 412,2936 411,2937 410,2937 407,2940 407,2942 401,2948 399,2948 398,2949 394,2949 392,2951 391,2951 389,2953 389,2956 387,2958 386,2958 382,2962 379,2962 377,2964 376,2964 374,2966 374,2967 373,2968 373,2969 372,2970 371,2970 367,2974 366,2974 365,2975 364,2975 362,2977 361,2977 359,2979 359,2981 357,2983 357,2984 355,2986 354,2986 348,2992 347,2992 343,2996 343,2997 339,3001 339,3003 338,3004 338,3005 337,3006 336,3006 335,3007 333,3007 332,3008 331,3007 330,3008 329,3008 327,3010 327,3011 326,3012 326,3013 321,3018 321,3019 320,3020 319,3020 318,3021 317,3021 316,3022 316,3023 313,3026 313,3027 312,3028 312,3030 311,3031 310,3031 307,3034 307,3035 306,3036 306,3037 304,3039 302,3039 302,3040 301,3041 300,3041 300,3042 299,3043 299,3046 298,3047 298,3048 292,3054 291,3054 290,3055 289,3055 285,3059 285,3060 284,3061 284,3062 283,3063 283,3065 282,3066 282,3068 281,3069 279,3069 279,3070 276,3073 276,3074 274,3076 274,3077 273,3078 273,3081 270,3084 271,3085 270,3086 270,3088 269,3089 269,3090 268,3091 267,3091 267,3093 266,3094 265,3094 265,3095 263,3097 263,3098 262,3099 261,3099 261,3100 257,3104 257,3106 256,3107 256,3108 255,3109 255,3110 254,3111 254,3114 253,3115 253,3119 250,3122 250,3123 249,3124 248,3124 246,3126 246,3127 244,3129 244,3131 243,3132 243,3137 241,3139 240,3139 240,3140 238,3142 238,3147 237,3148 237,3150 236,3151 235,3151 235,3153 234,3154 234,3155 233,3156 233,3159 232,3160 232,3164 231,3165 231,3167 230,3168 230,3171 229,3172 229,3173 227,3175 226,3174 225,3175 225,3176 224,3177 224,3178 223,3179 223,3184 222,3185 221,3185 221,3186 220,3187 220,3188 219,3189 219,3194 218,3195 218,3202 217,3203 217,3207 216,3208 216,3209 217,3210 216,3211 216,3213 215,3214 215,3215 214,3216 214,3219 213,3220 213,3222 212,3223 212,3226 211,3227 212,3228 211,3229 211,3231 209,3233 208,3233 208,3234 207,3235 207,3236 206,3237 206,3243 205,3244 205,3263 204,3264 204,3272 203,3273 203,3277 202,3278 202,3280 201,3281 201,3283 200,3284 201,3285 200,3286 200,3290 199,3291 200,3292 200,3293 199,3294 199,3298 198,3299 198,3302 197,3303 198,3304 197,3305 197,3307 196,3308 195,3307 195,3306 195,3312 194,3313 194,3316 195,3317 195,3318 194,3319 194,3320 195,3321 195,3322 194,3323 194,3338 195,3339 194,3340 194,3343 195,3344 195,3345 196,3345 197,3346 196,3347 197,3348 197,3349 202,3354 203,3354 204,3355 207,3355 208,3356 209,3355 210,3356 211,3356 212,3357 213,3357 214,3356 221,3356 222,3355 223,3356 224,3355 226,3355 227,3354 228,3354 230,3352 231,3352 236,3347 236,3346 237,3345 237,3340 238,3339 237,3338 238,3337 238,3332 239,3331 238,3330 238,3329 239,3328 239,3325 240,3324 240,3323 241,3322 241,3321 242,3320 242,3319 243,3318 244,3318 243,3317 244,3316 244,3315 245,3314 246,3314 247,3313 247,3312 248,3311 248,3306 249,3305 249,3303 250,3302 250,3300 251,3299 251,3297 253,3295 253,3293 254,3292 253,3291 253,3290 254,3289 254,3288 255,3287 256,3287 258,3285 258,3283 259,3282 259,3281 260,3280 261,3280 261,3279 263,3277 263,3275 264,3274 264,3273 266,3271 266,3270 267,3269 267,3264 270,3261 272,3261 273,3260 273,3259 275,3257 275,3253 276,3252 276,3250 280,3246 280,3245 281,3244 281,3243 282,3242 282,3241 283,3240 283,3239 284,3238 285,3239 286,3239 286,3237 288,3235 288,3234 289,3233 289,3232 293,3228 294,3228 295,3227 294,3226 295,3225 296,3225 296,3223 298,3221 298,3220 300,3218 301,3218 302,3217 303,3217 306,3214 306,3211 307,3210 307,3209 308,3208 308,3207 310,3205 311,3205 316,3200 317,3200 317,3199 321,3195 321,3194 322,3193 323,3193 323,3192 326,3189 326,3188 328,3186 330,3186 331,3185 333,3185 337,3181 337,3180 342,3175 343,3176 345,3174 346,3174 346,3173 347,3172 348,3172 348,3170 349,3169 349,3168 351,3166 352,3166 353,3165 356,3165 358,3163 358,3162 359,3161 362,3161 364,3159 364,3156 365,3155 365,3154 367,3152 369,3152 370,3151 372,3151 373,3150 374,3151 375,3150 376,3150 376,3149 377,3148 378,3148 378,3147 380,3145 381,3145 381,3144 385,3140 388,3140 389,3139 389,3138 390,3137 390,3136 392,3134 394,3134 395,3133 400,3133 401,3132 402,3132 403,3131 403,3130 404,3129 405,3129 411,3123 414,3123 416,3121 417,3121 418,3120 420,3120 421,3119 426,3119 427,3118 428,3118 431,3115 432,3116 434,3114 434,3111 436,3109 442,3109 443,3108 444,3108 445,3107 447,3107 448,3106 452,3106 453,3105 454,3105 455,3104 458,3104 459,3103 461,3103 462,3102 463,3102 464,3101 465,3101 466,3100 467,3101 467,3100 468,3099 469,3099 471,3097 473,3097 474,3096 476,3096 478,3094 480,3094 481,3093 484,3093 485,3092 486,3092 487,3091 498,3091 499,3090 505,3090 506,3089 509,3089 510,3088 511,3088 512,3087 513,3087 512,3086 512,3085 513,3084 514,3084 515,3083 516,3084 520,3084 521,3083 525,3083 526,3082 530,3082 531,3081 536,3081 537,3080 538,3080 539,3079 546,3079 547,3078 548,3079 549,3079 550,3078 551,3079 552,3078 553,3079 555,3079 556,3078 569,3078 570,3077 571,3077 572,3078 573,3077 576,3077 577,3078 578,3077 579,3077 580,3078 581,3078 582,3077 588,3077 589,3076 590,3076 591,3077 601,3077 602,3076 604,3076 605,3077 606,3077 607,3076 614,3076 615,3077 616,3076 617,3077 618,3077 619,3076 620,3077 621,3077 622,3078 623,3077 624,3077 625,3078 626,3078 627,3077 630,3077 631,3078 632,3077 633,3077 634,3078 637,3078 638,3079 639,3079 640,3078 654,3078 655,3079 668,3079 669,3080 670,3079 671,3080 672,3080 673,3081 678,3081 679,3082 689,3082 690,3083 691,3083 692,3084 692,3085 695,3085 696,3084 700,3084 702,3086 702,3087 703,3088 704,3088 706,3090 707,3090 708,3091 710,3091 711,3092 712,3091 716,3091 717,3092 718,3092 719,3093 720,3093 721,3094 723,3094 724,3095 725,3095 727,3097 728,3097 732,3101 732,3102 733,3102 734,3103 735,3103 737,3105 738,3105 739,3106 740,3105 741,3106 746,3106 747,3107 757,3107 758,3106 760,3106 762,3104 762,3103 763,3102 765,3102 767,3100 767,3099 768,3098 768,3097 770,3095 772,3095 772,3094 776,3090 778,3090 781,3087 780,3086 780,3085 781,3084 782,3084 783,3083 784,3083 787,3080 787,3079 789,3077 790,3077 793,3074 793,3072 794,3071 794,3070 795,3069 796,3069 797,3068 798,3068 801,3065 803,3065 804,3064 806,3064 807,3063 808,3063 811,3060 811,3058 813,3056 814,3056 816,3054 817,3054 819,3052 822,3052 823,3053 825,3053 826,3054 827,3054 828,3055 829,3055 831,3057 831,3058 832,3059 832,3063 833,3064 834,3064 835,3065 837,3065 842,3070 842,3071 843,3072 843,3073 844,3074 844,3075 845,3076 845,3077 846,3077 848,3079 848,3080 849,3080 850,3081 851,3081 852,3082 854,3082 857,3085 857,3089 860,3092 862,3092 864,3094 865,3094 870,3099 870,3100 871,3101 871,3102 872,3103 873,3103 877,3107 878,3107 879,3108 881,3108 882,3109 883,3109 885,3111 885,3112 884,3113 890,3119 894,3119 896,3121 896,3122 897,3123 898,3123 903,3128 903,3129 906,3132 907,3132 908,3133 909,3133 910,3134 911,3134 914,3137 914,3139 915,3140 915,3141 917,3141 918,3142 919,3142 921,3144 921,3145 924,3148 924,3149 925,3149 931,3155 932,3155 934,3157 934,3158 935,3158 938,3161 938,3162 940,3164 940,3165 941,3166 942,3166 943,3167 945,3167 947,3169 947,3171 949,3173 949,3174 952,3177 953,3177 955,3179 957,3179 958,3180 960,3180 963,3183 963,3185 964,3186 964,3189 968,3193 969,3192 970,3193 971,3193 974,3196 974,3197 978,3201 979,3201 980,3202 981,3202 982,3203 983,3203 984,3204 994,3204 995,3203 996,3204 997,3203 999,3203 1000,3202 1001,3202 1002,3201 1003,3201 1013,3191 1013,3190 1014,3189 1014,3184 1015,3183 1015,3182 1017,3180 1017,3179 1020,3176 1020,3175 1022,3173 1022,3172 1025,3169 1025,3168 1026,3167 1027,3167 1028,3166 1028,3165 1029,3164 1029,3163 1030,3162 1030,3156 1032,3154 1032,3153 1033,3152 1034,3152 1036,3150 1037,3151 1040,3148 1040,3146 1041,3145 1041,3142 1042,3141 1042,3140 1043,3139 1043,3137 1044,3136 1044,3135 1045,3134 1046,3134 1049,3131 1050,3131 1053,3128 1053,3126 1054,3125 1054,3123 1055,3122 1056,3122 1056,3121 1058,3119 1059,3119 1061,3117 1062,3117 1064,3115 1064,3114 1065,3113 1065,3112 1066,3111 1066,3110 1067,3109 1068,3109 1068,3108 1069,3107 1070,3107 1070,3104 1072,3102 1072,3101 1078,3095 1079,3096 1079,3095 1081,3093 1081,3092 1084,3089 1083,3088 1084,3087 1084,3085 1086,3083 1088,3083 1090,3081 1092,3081 1092,3079 1093,3078 1094,3078 1095,3077 1095,3074 1096,3073 1096,3071 1100,3067 1100,3066 1102,3064 1106,3064 1107,3063 1107,3062 1108,3061 1108,3058 1111,3055 1111,3054 1116,3049 1117,3049 1117,3047 1118,3046 1118,3044 1122,3040 1123,3040 1124,3039 1125,3039 1125,3038 1126,3037 1126,3036 1127,3035 1127,3033 1128,3032 1129,3033 1129,3032 1130,3031 1131,3032 1132,3031 1133,3031 1134,3030 1139,3030 1140,3031 1142,3031 1146,3035 1145,3036 1147,3038 1148,3038 1149,3039 1151,3039 1152,3040 1153,3040 1155,3042 1156,3042 1158,3044 1158,3045 1162,3049 1163,3048 1164,3049 1165,3049 1166,3050 1167,3050 1170,3053 1170,3055 1171,3055 1172,3056 1174,3056 1175,3057 1176,3057 1179,3060 1179,3062 1180,3063 1181,3063 1182,3064 1183,3064 1184,3065 1186,3065 1187,3066 1188,3066 1189,3067 1191,3067 1194,3070 1194,3071 1195,3072 1195,3073 1196,3074 1196,3075 1197,3075 1199,3077 1201,3077 1202,3078 1202,3079 1203,3078 1204,3078 1207,3081 1208,3081 1209,3082 1210,3082 1212,3084 1213,3084 1214,3085 1214,3087 1216,3089 1219,3089 1220,3090 1221,3090 1222,3091 1223,3091 1225,3093 1226,3093 1228,3095 1229,3095 1236,3102 1236,3103 1237,3104 1239,3104 1241,3106 1245,3106 1247,3108 1253,3108 1256,3111 1256,3113 1257,3114 1258,3114 1260,3116 1261,3116 1264,3119 1265,3119 1266,3120 1272,3120 1273,3121 1275,3121 1276,3122 1277,3122 1278,3123 1279,3123 1280,3124 1280,3125 1281,3125 1282,3126 1283,3126 1284,3127 1284,3128 1285,3128 1286,3129 1286,3130 1287,3131 1287,3132 1289,3132 1290,3133 1296,3133 1297,3134 1298,3134 1299,3135 1304,3135 1305,3136 1305,3139 1307,3141 1310,3141 1312,3143 1312,3144 1313,3144 1314,3145 1313,3146 1314,3146 1316,3148 1317,3148 1318,3149 1322,3149 1323,3150 1325,3150 1326,3151 1330,3151 1331,3152 1331,3153 1334,3156 1334,3157 1336,3159 1338,3159 1339,3160 1341,3160 1342,3161 1343,3161 1345,3163 1345,3164 1348,3164 1349,3165 1351,3165 1352,3166 1355,3166 1356,3167 1356,3168 1357,3169 1357,3172 1360,3175 1361,3175 1362,3176 1364,3176 1365,3177 1366,3176 1369,3176 1370,3177 1372,3177 1374,3179 1375,3179 1376,3180 1376,3181 1378,3183 1379,3183 1380,3182 1382,3184 1382,3186 1385,3189 1386,3189 1387,3190 1388,3190 1389,3191 1392,3191 1393,3192 1394,3191 1395,3192 1398,3192 1400,3194 1401,3194 1402,3195 1402,3196 1403,3197 1404,3197 1406,3199 1407,3199 1408,3198 1409,3199 1409,3200 1410,3199 1414,3203 1415,3203 1416,3204 1417,3204 1418,3205 1419,3204 1420,3205 1423,3205 1424,3206 1425,3206 1427,3208 1427,3209 1428,3209 1429,3210 1431,3210 1432,3211 1433,3211 1436,3214 1441,3214 1442,3215 1443,3215 1444,3216 1446,3216 1448,3218 1450,3218 1451,3219 1453,3219 1454,3220 1456,3220 1458,3222 1459,3221 1461,3223 1463,3223 1464,3224 1465,3224 1466,3225 1468,3225 1469,3226 1471,3226 1472,3227 1474,3227 1475,3228 1477,3228 1478,3229 1482,3229 1484,3231 1485,3231 1487,3233 1491,3233 1494,3236 1497,3236 1498,3237 1498,3238 1499,3238 1500,3237 1501,3238 1501,3239 1502,3238 1503,3239 1503,3240 1504,3240 1505,3241 1508,3241 1509,3242 1510,3242 1511,3243 1518,3243 1519,3244 1522,3244 1523,3245 1524,3245 1526,3247 1526,3248 1527,3247 1528,3248 1528,3249 1530,3251 1532,3251 1533,3252 1535,3252 1536,3253 1537,3253 1538,3254 1541,3254 1542,3255 1545,3255 1546,3256 1547,3256 1548,3255 1550,3255 1551,3256 1553,3256 1554,3257 1558,3257 1560,3259 1561,3259 1563,3261 1564,3261 1565,3262 1565,3263 1566,3262 1567,3263 1568,3263 1569,3264 1569,3265 1570,3265 1571,3266 1572,3266 1573,3267 1575,3267 1576,3268 1578,3268 1579,3269 1580,3268 1582,3268 1583,3269 1590,3269 1591,3270 1595,3270 1596,3271 1597,3271 1599,3273 1600,3273 1601,3274 1602,3274 1604,3276 1604,3277 1605,3277 1607,3279 1609,3279 1610,3280 1612,3280 1613,3279 1614,3280 1615,3280 1617,3282 1619,3282 1620,3283 1623,3283 1624,3282 1625,3283 1626,3282 1632,3282 1633,3283 1636,3283 1637,3284 1639,3282 1640,3283 1642,3283 1643,3284 1644,3284 1646,3286 1648,3286 1649,3287 1652,3287 1653,3288 1654,3288 1657,3291 1657,3292 1658,3293 1660,3293 1661,3294 1662,3294 1663,3295 1667,3295 1668,3296 1671,3296 1672,3295 1673,3296 1674,3296 1675,3295 1676,3295 1677,3296 1678,3296 1679,3295 1680,3295 1681,3296 1682,3295 1683,3296 1685,3296 1686,3295 1687,3296 1691,3296 1692,3297 1698,3297 1699,3298 1703,3298 1704,3299 1706,3299 1709,3302 1711,3302 1712,3303 1713,3303 1716,3306 1718,3306 1719,3307 1722,3307 1723,3308 1724,3308 1725,3309 1726,3309 1727,3308 1728,3309 1729,3308 1730,3308 1731,3309 1732,3309 1733,3310 1734,3309 1740,3309 1741,3310 1747,3310 1748,3311 1749,3310 1750,3310 1751,3311 1758,3311 1759,3312 1760,3311 1761,3311 1762,3312 1763,3311 1764,3312 1770,3312 1771,3313 1777,3313 1778,3314 1780,3314 1781,3315 1782,3314 1785,3317 1785,3318 1786,3318 1787,3319 1788,3319 1789,3320 1790,3320 1791,3321 1793,3321 1794,3322 1795,3322 1796,3321 1798,3321 1799,3322 1802,3322 1803,3323 1806,3323 1807,3322 1808,3323 1811,3323 1812,3324 1813,3323 1815,3323 1816,3324 1817,3323 1818,3324 1820,3324 1821,3323 1825,3323 1826,3324 1828,3324 1829,3323 1830,3324 1845,3324 1846,3325 1855,3325 1856,3326 1857,3325 1858,3326 1859,3325 1860,3326 1866,3326 1867,3327 1868,3327 1869,3328 1871,3328 1872,3329 1872,3330 1873,3329 1874,3329 1875,3330 1876,3330 1878,3332 1879,3332 1881,3334 1882,3334 1884,3336 1885,3336 1886,3337 1888,3337 1889,3338 1894,3338 1895,3339 1937,3339 1938,3338 1940,3338 1941,3339 1991,3339 1992,3340 1993,3340 1994,3339 2022,3339 2023,3340 2041,3340 2042,3339 2046,3339 2047,3340 2081,3340 2082,3339 2083,3340 2084,3340 2085,3339 2086,3340 2098,3340 2099,3339 2126,3339 2127,3338 2128,3339 2139,3339 2140,3338 2141,3339 2142,3339 2143,3338 2145,3338 2146,3339 2150,3339 2151,3338 2179,3338 2180,3337 2187,3337 2188,3336 2190,3336 2191,3335 2194,3335 2194,3334 2195,3333 2196,3334 2199,3334 2200,3333 2203,3333 2202,3332 2203,3331 2207,3331 2209,3329 2211,3329 2212,3328 2214,3328 2215,3327 2216,3328 2217,3327 2222,3327 2223,3326 2229,3326 2230,3325 2231,3326 2232,3325 2233,3326 2234,3325 2252,3325 2253,3324 2266,3324 2267,3323 2268,3324 2269,3324 2270,3323 2273,3323 2274,3322 2285,3322 2286,3321 2287,3321 2288,3320 2289,3321 2290,3320 2292,3320 2293,3319 2295,3319 2296,3318 2297,3318 2298,3317 2299,3317 2300,3316 2300,3315 2301,3314 2302,3314 2303,3313 2305,3313 2306,3312 2316,3312 2317,3311 2323,3311 2324,3310 2328,3310 2329,3311 2332,3311 2333,3310 2338,3310 2339,3309 2340,3309 2341,3310 2342,3310 2344,3308 2345,3309 2346,3309 2347,3308 2348,3309 2350,3309 2351,3308 2353,3308 2354,3307 2355,3307 2355,3306 2356,3305 2357,3305 2358,3304 2361,3304 2362,3303 2363,3303 2364,3302 2365,3302 2366,3301 2367,3301 2369,3299 2370,3300 2371,3299 2372,3299 2373,3298 2378,3298 2379,3297 2380,3297 2381,3296 2393,3296 2394,3295 2395,3296 2396,3295 2402,3295 2403,3296 2404,3295 2410,3295 2411,3294 2414,3294 2415,3293 2416,3293 2417,3292 2418,3292 2422,3288 2423,3288 2425,3286 2427,3286 2428,3285 2429,3285 2430,3284 2431,3284 2432,3283 2442,3283 2443,3282 2446,3282 2447,3283 2448,3282 2455,3282 2456,3281 2457,3282 2458,3281 2461,3281 2465,3277 2466,3277 2468,3275 2469,3275 2470,3274 2471,3274 2472,3273 2473,3273 2475,3271 2477,3271 2478,3270 2487,3270 2488,3269 2495,3269 2496,3268 2499,3268 2500,3267 2502,3267 2503,3266 2505,3266 2510,3261 2511,3261 2512,3260 2513,3261 2514,3260 2515,3260 2518,3257 2520,3257 2521,3256 2525,3256 2526,3255 2527,3256 2528,3255 2529,3255 2530,3254 2531,3255 2532,3254 2537,3254 2538,3253 2540,3253 2541,3252 2543,3252 2544,3251 2545,3251 2547,3249 2548,3249 2548,3248 2549,3247 2550,3248 2551,3247 2551,3246 2552,3245 2554,3245 2555,3244 2559,3244 2560,3243 2565,3243 2566,3242 2568,3242 2569,3241 2570,3241 2574,3237 2577,3237 2578,3236 2581,3236 2582,3235 2583,3236 2585,3234 2586,3235 2587,3234 2588,3234 2589,3233 2590,3233 2593,3230 2594,3230 2595,3229 2596,3230 2597,3229 2598,3229 2599,3228 2602,3228 2603,3227 2606,3227 2607,3226 2609,3226 2610,3225 2610,3224 2611,3223 2611,3222 2613,3220 2614,3221 2615,3221 2616,3220 2618,3220 2619,3219 2620,3219 2621,3218 2622,3218 2623,3217 2626,3217 2627,3216 2629,3216 2630,3215 2632,3215 2633,3214 2634,3214 2635,3213 2635,3212 2638,3209 2641,3209 2643,3207 2645,3207 2646,3206 2649,3206 2650,3205 2653,3205 2654,3204 2655,3204 2656,3203 2657,3203 2658,3202 2658,3201 2659,3200 2660,3200 2661,3201 2662,3200 2664,3200 2665,3199 2666,3199 2667,3198 2667,3197 2668,3196 2669,3196 2669,3195 2670,3194 2671,3194 2672,3193 2673,3193 2674,3192 2678,3192 2679,3191 2682,3191 2683,3190 2684,3190 2685,3189 2686,3189 2688,3187 2688,3186 2689,3185 2691,3185 2692,3184 2692,3183 2696,3179 2697,3179 2698,3178 2705,3178 2706,3177 2707,3177 2708,3176 2709,3176 2710,3175 2712,3175 2714,3173 2715,3173 2717,3171 2716,3170 2717,3169 2718,3169 2718,3168 2719,3167 2720,3167 2722,3165 2723,3165 2724,3164 2728,3164 2729,3163 2731,3163 2732,3162 2733,3162 2735,3160 2736,3160 2739,3157 2738,3156 2739,3155 2739,3153 2741,3151 2746,3151 2747,3150 2748,3150 2749,3149 2752,3149 2753,3148 2754,3149 2755,3148 2756,3148 2757,3147 2758,3147 2761,3144 2762,3144 2762,3143 2764,3141 2764,3140 2768,3136 2769,3136 2770,3135 2771,3135 2772,3134 2774,3134 2775,3133 2783,3133 2784,3132 2785,3132 2785,3130 2786,3129 2787,3129 2789,3127 2789,3126 2792,3123 2796,3123 2798,3121 2799,3121 2800,3120 2801,3120 2802,3119 2803,3119 2804,3118 2807,3118 2807,3117 2808,3116 2810,3116 2811,3115 2812,3115 2814,3113 2814,3111 2815,3110 2815,3109 2816,3108 2822,3108 2824,3106 2825,3106 2826,3105 2827,3105 2828,3104 2829,3105 2829,3104 2830,3103 2831,3104 2835,3100 2835,3099 2838,3096 2839,3096 2841,3094 2842,3094 2843,3093 2844,3093 2845,3092 2847,3092 2848,3091 2849,3091 2850,3090 2853,3090 2854,3089 2855,3089 2857,3087 2857,3086 2858,3085 2858,3084 2860,3082 2861,3082 2862,3081 2865,3081 2866,3080 2867,3080 2867,3079 2868,3078 2869,3078 2871,3076 2872,3077 2874,3075 2874,3073 2875,3072 2875,3071 2880,3066 2881,3066 2882,3065 2888,3065 2889,3064 2891,3064 2892,3065 2893,3065 2894,3066 2895,3066 2899,3070 2899,3071 2900,3072 2900,3074 2901,3075 2901,3078 2902,3079 2902,3081 2903,3082 2904,3082 2905,3083 2908,3083 2911,3086 2910,3087 2911,3088 2911,3090 2912,3091 2912,3093 2913,3094 2913,3096 2914,3097 2914,3098 2917,3101 2917,3102 2918,3102 2919,3103 2921,3103 2923,3105 2923,3106 2926,3109 2926,3110 2927,3111 2927,3113 2928,3114 2928,3116 2929,3117 2929,3118 2932,3121 2934,3121 2936,3123 2936,3124 2939,3127 2939,3128 2940,3129 2940,3132 2941,3133 2940,3134 2941,3135 2941,3136 2942,3137 2942,3138 2945,3141 2946,3140 2947,3141 2948,3141 2949,3142 2949,3143 2950,3144 2950,3145 2951,3146 2951,3148 2955,3152 2955,3153 2956,3153 2957,3154 2957,3155 2959,3157 2958,3158 2959,3159 2959,3160 2961,3160 2962,3161 2963,3161 2968,3166 2968,3167 2969,3168 2969,3173 2970,3174 2970,3175 2971,3176 2971,3177 2972,3178 2974,3178 2977,3181 2977,3182 2978,3183 2978,3184 2979,3184 2981,3186 2981,3187 2982,3188 2981,3189 2982,3190 2982,3191 2983,3192 2983,3193 2987,3197 2987,3199 2988,3200 2988,3201 2989,3201 2996,3208 2996,3209 2997,3210 2997,3211 2996,3212 2997,3213 2997,3216 2999,3218 2999,3219 3000,3219 3001,3220 3001,3221 3008,3228 3009,3228 3010,3229 3012,3229 3013,3230 3021,3230 3022,3229 3023,3230 3024,3229 3027,3229 3028,3228 3029,3228 3031,3226 3032,3226 3034,3224 3034,3222 3037,3219 3038,3219 3040,3217 3041,3217 3042,3216 3043,3217 3045,3215 3045,3214 3046,3213 3046,3211 3048,3209 3049,3209 3055,3203 3057,3203 3058,3202 3060,3202 3063,3199 3063,3197 3064,3196 3064,3195 3066,3193 3067,3193 3068,3192 3071,3192 3072,3191 3073,3191 3077,3187 3077,3186 3078,3185 3078,3183 3079,3182 3079,3181 3081,3179 3082,3179 3083,3178 3084,3178 3085,3177 3088,3177 3089,3176 3089,3175 3090,3174 3090,3173 3092,3171 3092,3170 3094,3168 3095,3168 3097,3166 3098,3166 3099,3165 3099,3164 3100,3163 3101,3164 3102,3164 3103,3163 3103,3162 3104,3161 3105,3161 3105,3158 3106,3157 3106,3156 3110,3152 3112,3152 3113,3151 3114,3151 3115,3150 3115,3149 3118,3146 3118,3145 3120,3143 3121,3143 3123,3141 3124,3141 3126,3139 3127,3139 3127,3137 3130,3134 3132,3134 3133,3133 3136,3133 3137,3132 3138,3132 3138,3131 3144,3125 3144,3124 3145,3123 3146,3123 3147,3122 3148,3122 3149,3121 3152,3121 3155,3118 3155,3117 3157,3115 3157,3114 3158,3113 3157,3112 3161,3108 3167,3108 3170,3105 3170,3103 3171,3102 3171,3101 3176,3096 3179,3096 3183,3092 3183,3091 3184,3090 3185,3090 3185,3089 3186,3088 3186,3085 3187,3084 3188,3084 3190,3082 3191,3082 3195,3078 3199,3078 3202,3081 3203,3081 3206,3084 3207,3084 3208,3085 3208,3088 3209,3089 3209,3090 3210,3090 3217,3097 3217,3098 3218,3099 3218,3100 3222,3104 3223,3104 3224,3105 3224,3106 3227,3109 3228,3109 3230,3111 3230,3112 3231,3113 3231,3115 3232,3115 3242,3125 3242,3126 3243,3127 3243,3129 3244,3130 3244,3132 3246,3134 3249,3134 3251,3136 3251,3138 3252,3139 3252,3140 3253,3141 3253,3142 3257,3146 3257,3147 3258,3147 3262,3151 3263,3151 3264,3152 3266,3152 3272,3158 3274,3158 3275,3159 3276,3159 3277,3160 3292,3160 3293,3159 3295,3159 3296,3158 3297,3158 3297,3157 3298,3156 3301,3156 3302,3157 3303,3157 3304,3156 3305,3156 3308,3153 3309,3153 3310,3152 3314,3152 3315,3151 3319,3151 3320,3150 3322,3150 3323,3149 3333,3149 3334,3148 3359,3148 3360,3147 3386,3147 3387,3146 3407,3146 3408,3147 3409,3147 3410,3146 3411,3147 3421,3147 3422,3148 3437,3148 3438,3149 3439,3148 3440,3148 3441,3149 3442,3148 3450,3148 3451,3149 3462,3149 3463,3150 3466,3150 3467,3151 3469,3151 3470,3152 3473,3152 3474,3153 3475,3153 3476,3154 3477,3153 3478,3154 3478,3155 3479,3154 3480,3155 3480,3156 3481,3157 3482,3157 3483,3158 3485,3158 3486,3159 3488,3159 3489,3160 3492,3160 3493,3161 3496,3161 3497,3162 3498,3161 3499,3161 3500,3162 3501,3161 3505,3161 3507,3163 3507,3164 3514,3164 3515,3165 3519,3165 3520,3166 3523,3166 3527,3170 3527,3171 3529,3173 3530,3173 3531,3174 3535,3174 3537,3176 3539,3176 3540,3177 3542,3177 3543,3176 3544,3177 3550,3177 3551,3178 3553,3178 3554,3179 3555,3179 3556,3180 3556,3181 3557,3182 3556,3181 3557,3180 3558,3180 3559,3181 3560,3181 3562,3183 3562,3186 3565,3189 3566,3189 3567,3190 3569,3190 3570,3191 3576,3191 3577,3192 3578,3192 3579,3193 3581,3193 3584,3196 3585,3196 3586,3197 3586,3198 3588,3200 3589,3200 3591,3202 3592,3202 3593,3203 3596,3203 3597,3204 3599,3204 3602,3207 3603,3207 3604,3208 3603,3209 3604,3210 3607,3210 3609,3212 3609,3213 3610,3214 3610,3215 3611,3215 3612,3216 3613,3215 3614,3216 3615,3215 3619,3219 3620,3219 3622,3221 3622,3223 3623,3224 3624,3224 3625,3225 3626,3225 3628,3227 3629,3227 3630,3228 3632,3228 3635,3231 3635,3232 3637,3234 3637,3235 3639,3237 3640,3236 3641,3237 3642,3237 3643,3238 3644,3238 3645,3239 3645,3241 3646,3242 3647,3242 3653,3248 3653,3250 3656,3253 3658,3253 3659,3254 3659,3255 3662,3258 3662,3259 3665,3262 3665,3263 3666,3264 3666,3266 3668,3268 3670,3268 3674,3272 3674,3273 3676,3275 3676,3277 3677,3278 3676,3279 3677,3279 3678,3280 3677,3281 3679,3283 3679,3284 3681,3286 3682,3286 3683,3287 3685,3287 3688,3290 3688,3292 3687,3293 3691,3297 3691,3298 3692,3299 3692,3301 3693,3302 3693,3303 3694,3304 3694,3305 3695,3306 3697,3306 3699,3308 3700,3308 3701,3309 3701,3310 3702,3311 3702,3312 3703,3312 3706,3315 3706,3318 3707,3319 3707,3320 3708,3321 3709,3321 3713,3325 3714,3325 3716,3327 3716,3329 3717,3330 3717,3332 3719,3334 3719,3338 3720,3339 3720,3341 3722,3343 3722,3344 3724,3346 3725,3346 3726,3347 3727,3347 3729,3349 3729,3351 3730,3352 3730,3353 3731,3354 3731,3355 3732,3356 3732,3357 3733,3358 3733,3360 3732,3361 3732,3363 3733,3364 3733,3366 3734,3365 3736,3367 3736,3369 3735,3370 3736,3371 3736,3372 3737,3373 3738,3373 3742,3377 3742,3379 3744,3381 3744,3382 3745,3383 3745,3387 3746,3388 3746,3390 3747,3391 3747,3395 3748,3396 3748,3402 3749,3403 3749,3406 3750,3407 3750,3409 3752,3411 3752,3412 3753,3412 3754,3413 3754,3414 3755,3415 3755,3416 3756,3417 3756,3419 3757,3420 3757,3424 3758,3425 3758,3433 3759,3434 3759,3436 3760,3437 3759,3438 3760,3439 3760,3440 3759,3441 3760,3441 3761,3442 3761,3466 3762,3467 3762,3486 3761,3487 3761,3490 3762,3491 3761,3492 3762,3493 3762,3502 3765,3505 3763,3507 3763,3510 3764,3511 3764,3512 3767,3512 3768,3513 3788,3513 3789,3514 3791,3514 3792,3513 3802,3513 3803,3512 3805,3512 3805,3511 3806,3510 3806,3507 3805,3506 3805,3504 3806,3503 3806,3501 3807,3500 3808,3500 3808,3492 3809,3491 3809,3489 3811,3487 3811,3486 3812,3485 3812,3481 3813,3480 3812,3479 3813,3478 3812,3477 3813,3476 3813,3475 3814,3474 3814,3468 3815,3467 3817,3467 3817,3466 3818,3465 3818,3448 3819,3447 3819,3446 3818,3445 3819,3444 3819,3417 3820,3416 3820,3381 3819,3380 3819,3373 3820,3372 3819,3371 3819,3367 3820,3366 3820,3362 3821,3361 3820,3360 3820,3353 3819,3352 3819,3349 3818,3348 3819,3347 3818,3346 3818,3342 3817,3341 3817,3337 3816,3336 3816,3334 3814,3332 3814,3330 3813,3329 3813,3328 3814,3327 3813,3326 3813,3324 3812,3323 3812,3321 3811,3321 3810,3320 3810,3318 3809,3317 3809,3314 3807,3312 3807,3305 3806,3304 3806,3302 3805,3301 3805,3299 3804,3298 3804,3296 3803,3295 3803,3294 3802,3293 3803,3292 3802,3291 3802,3289 3801,3288 3801,3285 3800,3284 3800,3279 3799,3278 3799,3275 3798,3274 3798,3272 3797,3271 3797,3270 3796,3269 3796,3267 3795,3266 3795,3264 3792,3261 3792,3260 3791,3261 3790,3261 3789,3260 3789,3259 3790,3258 3791,3258 3790,3257 3790,3256 3789,3256 3787,3254 3787,3253 3788,3252 3787,3251 3787,3249 3786,3248 3786,3245 3785,3244 3785,3243 3783,3241 3783,3240 3782,3239 3782,3238 3783,3237 3782,3236 3782,3235 3781,3234 3781,3233 3780,3232 3780,3231 3779,3230 3778,3230 3777,3229 3777,3228 3775,3226 3776,3225 3775,3224 3775,3223 3771,3219 3771,3218 3770,3217 3770,3216 3769,3215 3769,3206 3768,3205 3768,3204 3767,3203 3767,3202 3764,3199 3764,3198 3763,3197 3762,3197 3760,3195 3760,3194 3758,3192 3758,3191 3757,3190 3757,3189 3756,3188 3756,3187 3755,3186 3756,3185 3755,3184 3755,3180 3754,3179 3754,3174 3753,3173 3753,3171 3750,3168 3748,3168 3747,3167 3746,3167 3745,3166 3745,3165 3744,3164 3744,3163 3743,3162 3743,3158 3742,3157 3742,3156 3743,3155 3742,3154 3742,3151 3740,3149 3741,3148 3739,3146 3739,3144 3738,3143 3738,3141 3737,3140 3736,3140 3735,3139 3734,3139 3732,3137 3732,3136 3728,3132 3728,3127 3727,3126 3727,3124 3726,3123 3726,3121 3725,3120 3725,3119 3723,3117 3722,3117 3721,3116 3720,3116 3719,3115 3719,3114 3718,3113 3718,3112 3717,3111 3717,3110 3716,3110 3713,3107 3713,3102 3711,3100 3708,3100 3705,3097 3705,3096 3704,3095 3704,3094 3702,3092 3702,3091 3701,3090 3701,3089 3698,3086 3698,3085 3696,3083 3695,3083 3693,3081 3693,3078 3691,3076 3688,3076 3687,3075 3687,3074 3686,3073 3686,3072 3685,3071 3685,3068 3683,3066 3682,3066 3680,3064 3679,3064 3678,3063 3678,3062 3677,3061 3677,3060 3676,3059 3675,3059 3674,3058 3674,3057 3673,3057 3671,3055 3671,3054 3669,3052 3668,3052 3666,3050 3662,3050 3660,3048 3660,3046 3659,3045 3659,3044 3657,3044 3655,3042 3654,3042 3649,3037 3648,3037 3646,3035 3646,3034 3645,3033 3645,3032 3644,3031 3643,3031 3642,3030 3642,3029 3641,3029 3639,3027 3638,3028 3637,3027 3636,3027 3635,3026 3635,3025 3633,3023 3633,3022 3631,3020 3629,3020 3628,3019 3627,3019 3626,3018 3625,3018 3624,3017 3623,3017 3621,3015 3619,3015 3618,3014 3618,3013 3616,3011 3616,3009 3614,3007 3611,3007 3610,3006 3609,3006 3607,3004 3606,3005 3604,3005 3601,3002 3600,3002 3598,3000 3598,2999 3597,2999 3595,2997 3595,2995 3594,2994 3593,2994 3592,2993 3591,2993 3590,2992 3585,2992 3584,2991 3581,2991 3580,2990 3579,2990 3577,2988 3575,2988 3573,2986 3572,2986 3571,2985 3570,2985 3567,2982 3567,2981 3565,2979 3564,2979 3563,2980 3562,2979 3559,2979 3557,2977 3554,2977 3553,2976 3552,2977 3551,2976 3545,2976 3544,2975 3542,2975 3541,2974 3539,2974 3538,2973 3534,2973 3533,2972 3532,2972 3530,2970 3528,2970 3526,2968 3524,2968 3523,2967 3522,2968 3516,2968 3515,2967 3513,2967 3512,2966 3509,2966 3507,2964 3507,2961 3508,2960 3508,2957 3509,2956 3512,2956 3513,2955 3515,2955 3516,2954 3520,2954 3521,2955 3525,2955 3527,2953 3528,2953 3530,2951 3531,2951 3532,2950 3534,2950 3535,2949 3536,2949 3538,2947 3539,2947 3540,2946 3542,2946 3543,2945 3544,2945 3545,2944 3548,2944 3549,2943 3551,2943 3552,2942 3554,2942 3555,2941 3556,2941 3557,2942 3557,2941 3558,2940 3559,2940 3560,2939 3560,2938 3561,2937 3564,2937 3566,2935 3567,2935 3569,2933 3569,2932 3570,2931 3571,2931 3572,2930 3574,2930 3575,2929 3588,2929 3589,2928 3590,2928 3592,2926 3592,2925 3597,2920 3599,2920 3601,2918 3602,2918 3603,2917 3604,2917 3605,2916 3609,2916 3610,2915 3611,2916 3612,2916 3613,2915 3618,2915 3619,2914 3621,2914 3621,2913 3622,2912 3623,2913 3625,2911 3627,2911 3629,2909 3630,2910 3631,2909 3632,2909 3634,2907 3634,2906 3637,2903 3638,2903 3639,2904 3640,2904 3641,2903 3645,2903 3646,2902 3652,2902 3653,2901 3656,2901 3657,2900 3658,2901 3662,2901 3663,2900 3665,2900 3666,2899 3667,2899 3669,2897 3671,2897 3671,2896 3672,2895 3673,2896 3674,2895 3675,2895 3678,2892 3680,2892 3682,2890 3684,2890 3685,2889 3686,2889 3687,2888 3694,2888 3695,2887 3696,2888 3700,2888 3701,2887 3702,2888 3703,2888 3704,2887 3705,2888 3706,2887 3708,2887 3709,2886 3710,2887 3717,2887 3718,2886 3722,2886 3723,2885 3724,2886 3726,2886 3727,2885 3732,2885 3733,2884 3736,2884 3737,2883 3738,2883 3739,2882 3740,2882 3741,2881 3741,2880 3742,2879 3744,2879 3745,2878 3746,2878 3747,2877 3750,2877 3751,2876 3755,2876 3757,2874 3758,2875 3759,2874 3760,2874 3761,2873 3762,2874 3768,2874 3769,2873 3774,2873 3775,2872 3783,2872 3784,2873 3789,2873 3790,2872 3791,2873 3792,2872 3793,2873 3793,2874 3794,2873 3795,2873 3796,2874 3797,2873 3806,2873 3807,2874 3808,2874 3809,2875 3817,2875 3818,2876 3819,2875 3820,2876 3821,2876 3822,2877 3825,2877 3826,2878 3828,2878 3829,2879 3832,2879 3833,2880 3832,2881 3833,2880 3834,2880 3835,2881 3834,2882 3836,2882 3837,2883 3838,2883 3839,2884 3840,2884 3841,2885 3848,2885 3850,2887 3851,2886 3852,2887 3853,2887 3855,2889 3856,2889 3857,2890 3859,2890 3860,2891 3863,2891 3864,2892 3866,2892 3868,2894 3869,2894 3870,2895 3871,2895 3876,2900 3878,2900 3878,2899 3879,2898 3880,2899 3883,2899 3886,2896 3886,2894 3887,2893 3887,2888 3886,2887 3886,2886 3887,2885 3887,2850 3886,2849 3886,2847 3883,2844 3878,2844 3876,2842 3875,2842 3874,2841 3871,2841 3869,2839 3868,2839 3866,2837 3866,2836 3863,2833 3862,2833 3861,2832 3860,2832 3859,2831 3859,2830 3858,2830 3856,2828 3853,2828 3852,2827 3850,2827 3849,2826 3848,2826 3847,2825 3847,2822 3846,2822 3845,2821 3845,2820 3842,2820 3840,2818 3840,2817 3839,2816 3838,2816 3837,2815 3836,2815 3834,2813 3833,2813 3832,2812 3830,2812 3829,2811 3826,2811 3825,2810 3823,2810 3822,2809 3821,2809 3818,2806 3818,2805 3816,2803 3815,2803 3814,2802 3812,2802 3811,2801 3806,2801 3805,2800 3804,2800 3803,2801 3800,2801 3799,2800 3796,2800 3793,2797 3790,2797 3784,2791 3784,2790 3783,2789 3782,2789 3781,2788 3780,2788 3779,2787 3770,2787 3769,2786 3768,2786 3767,2785 3765,2785 3760,2780 3759,2780 3758,2779 3758,2778 3757,2777 3757,2776 3756,2775 3755,2775 3754,2774 3753,2774 3752,2775 3749,2775 3748,2774 3746,2774 3745,2773 3745,2772 3744,2772 3743,2771 3742,2771 3741,2770 3739,2770 3738,2769 3737,2769 3736,2768 3735,2768 3731,2764 3731,2762 3730,2761 3729,2761 3728,2760 3720,2760 3719,2759 3716,2759 3715,2758 3714,2759 3713,2758 3710,2758 3709,2757 3708,2757 3706,2755 3705,2755 3702,2752 3702,2751 3701,2751 3700,2750 3700,2749 3698,2747 3697,2747 3696,2746 3695,2746 3694,2745 3690,2745 3689,2744 3688,2744 3687,2745 3681,2745 3680,2744 3677,2744 3676,2743 3673,2743 3672,2742 3671,2742 3670,2741 3670,2740 3669,2739 3669,2738 3666,2735 3665,2735 3664,2734 3662,2734 3660,2732 3657,2732 3656,2731 3654,2731 3653,2730 3645,2730 3644,2729 3643,2730 3642,2729 3636,2729 3634,2727 3630,2727 3629,2726 3627,2726 3620,2719 3619,2719 3618,2718 3616,2718 3615,2717 3600,2717 3599,2716 3595,2716 3594,2715 3587,2715 3586,2714 3585,2714 3584,2715 3582,2715 3581,2714 3580,2715 3579,2714 3577,2714 3576,2713 3574,2713 3573,2712 3572,2712 3571,2711 3570,2711 3569,2710 3568,2710 3567,2709 3565,2709 3564,2708 3562,2708 3561,2707 3559,2707 3558,2706 3557,2706 3556,2705 3554,2705 3553,2704 3552,2705 3551,2704 3551,2703 3550,2703 3549,2702 3541,2702 3540,2701 3535,2701 3534,2700 3530,2700 3529,2701 3528,2700 3524,2700 3523,2699 3521,2699 3520,2700 3519,2699 3509,2699 3508,2698 3507,2698 3506,2697 3505,2698 3504,2697 3504,2696 3502,2696 3501,2697 3498,2697 3497,2696 3497,2695 3489,2695 3488,2694 3476,2694 3475,2693 3470,2693 3469,2692 3465,2692 3464,2691 3461,2691 3460,2690 3454,2690 3453,2691 3452,2690 3451,2691 3450,2690 3448,2690 3447,2689 3444,2689 3443,2690 3442,2689 3441,2690 3440,2689 3438,2689 3437,2690 3436,2689 3431,2689 3430,2688 3427,2688 3426,2687 3425,2688 3424,2688 3423,2687 3422,2687 3421,2688 3420,2687 3414,2687 3413,2688 3412,2687 3404,2687 3403,2688 3401,2688 3400,2687 3398,2687 3397,2688 3394,2688 3393,2689 3392,2688 3391,2689 3390,2688 3388,2688 3387,2689 3386,2688 3385,2688 3384,2689 3382,2689 3381,2688 3380,2689 3364,2689 3363,2690 3362,2690 3361,2689 3354,2689 3353,2690 3351,2690 3350,2691 3348,2691 3347,2690 3330,2690 3329,2691 3328,2691 3327,2692 3312,2692 3311,2693 3301,2693 3300,2694 3293,2694 3292,2695 3286,2695 3285,2696 3282,2696 3281,2697 3280,2696 3279,2696 3278,2697 3276,2697 3276,2698 3275,2699 3260,2699 3259,2700 3258,2699 3257,2700 3254,2700 3253,2699 3252,2699 3251,2700 3244,2700 3243,2701 3237,2701 3236,2702 3232,2702 3231,2703 3228,2703 3227,2704 3226,2704 3225,2705 3223,2705 3222,2706 3220,2706 3219,2707 3218,2707 3217,2708 3216,2708 3215,2709 3214,2709 3214,2710 3213,2711 3212,2710 3211,2710 3208,2713 3205,2713 3204,2714 3200,2714 3199,2715 3195,2715 3194,2716 3182,2716 3181,2717 3165,2717 3164,2718 3161,2718 3160,2717 3158,2717 3156,2715 3156,2714 3153,2711 3153,2710 3152,2709 3150,2709 3149,2708 3149,2707 3148,2707 3143,2702 3143,2701 3142,2701 3141,2700 3136,2700 3132,2696 3132,2693 3131,2693 3129,2691 3127,2691 3126,2690 3125,2690 3124,2689 3121,2689 3120,2688 3119,2688 3117,2686 3117,2685 3116,2684 3116,2682 3114,2680 3113,2680 3112,2679 3109,2679 3108,2678 3107,2678 3106,2677 3106,2676 3101,2671 3101,2670 3100,2669 3100,2668 3096,2664 3095,2664 3094,2663 3091,2663 3089,2661 3088,2661 3087,2660 3085,2660 3084,2659 3082,2659 3081,2658 3080,2658 3079,2659 3078,2658 3074,2658 3073,2659 3071,2659 3070,2660 3068,2660 3067,2661 3066,2661 3060,2667 3060,2668 3059,2669 3059,2671 3058,2672 3057,2672 3056,2673 3055,2673 3053,2675 3053,2676 3051,2678 3051,2679 3049,2681 3049,2684 3048,2685 3048,2686 3045,2689 3044,2689 3043,2690 3041,2690 3040,2691 3040,2692 3039,2693 3039,2698 3035,2702 3035,2703 3032,2706 3031,2706 3030,2707 3029,2707 3029,2708 3028,2709 3028,2710 3027,2711 3027,2713 3024,2716 3023,2716 3021,2718 3021,2719 3020,2720 3020,2724 3019,2725 3015,2725 3011,2729 3011,2730 3010,2731 3010,2733 3009,2734 3009,2737 3008,2738 3007,2738 3007,2739 3004,2742 3002,2742 3001,2743 3000,2743 2999,2744 2998,2744 2997,2745 2997,2746 2996,2747 2996,2751 2995,2752 2995,2753 2992,2756 2991,2756 2990,2757 2989,2757 2987,2759 2985,2759 2985,2760 2984,2761 2984,2762 2983,2763 2983,2764 2982,2765 2982,2766 2978,2770 2977,2770 2976,2771 2975,2771 2971,2775 2971,2776 2970,2777 2970,2780 2969,2781 2969,2783 2966,2786 2964,2786 2963,2787 2962,2787 2961,2788 2953,2788 2951,2786 2950,2786 2949,2785 2949,2784 2946,2781 2946,2778 2945,2777 2944,2777 2943,2776 2942,2776 2941,2775 2940,2775 2937,2772 2937,2771 2935,2769 2935,2768 2934,2767 2934,2766 2932,2764 2932,2762 2931,2761 2930,2761 2928,2759 2927,2759 2924,2756 2923,2756 2922,2755 2921,2755 2919,2753 2919,2752 2917,2750 2917,2749 2916,2748 2916,2746 2915,2746 2908,2739 2908,2738 2906,2736 2905,2736 2903,2734 2903,2733 2902,2733 2901,2732 2901,2731 2899,2729 2899,2727 2898,2726 2896,2726 2895,2725 2894,2725 2893,2724 2893,2716 2894,2715 2894,2714 2895,2713 2895,2712 2896,2711 2896,2710 2897,2709 2897,2708 2899,2706 2899,2705 2900,2704 2900,2703 2901,2702 2901,2701 2902,2700 2903,2700 2904,2699 2905,2699 2906,2700 2909,2697 2909,2695 2910,2694 2911,2694 2911,2693 2913,2691 2913,2690 2915,2688 2916,2688 2917,2687 2918,2687 2919,2686 2919,2684 2920,2683 2921,2683 2922,2682 2923,2682 2925,2680 2925,2676 2927,2674 2928,2674 2930,2672 2932,2672 2936,2668 2935,2667 2937,2665 2937,2664 2938,2663 2938,2661 2941,2658 2942,2658 2944,2656 2945,2656 2946,2655 2948,2655 2950,2653 2950,2650 2951,2649 2951,2648 2954,2645 2954,2644 2956,2642 2957,2642 2958,2641 2960,2641 2961,2640 2961,2639 2962,2638 2962,2637 2970,2629 2971,2629 2972,2628 2973,2628 2976,2625 2976,2624 2977,2623 2977,2621 2978,2620 2978,2619 2979,2618 2979,2617 2980,2616 2980,2615 2981,2614 2981,2613 2984,2610 2985,2610 2986,2609 2987,2609 2988,2608 2988,2606 2990,2604 2990,2602 2991,2601 2991,2599 2992,2598 2992,2597 2993,2596 2993,2594 2994,2593 2994,2592 2995,2591 2996,2591 2997,2590 2998,2590 2999,2589 3001,2589 3002,2588 3002,2587 3003,2586 3003,2584 3005,2582 3005,2581 3009,2577 3009,2575 3010,2574 3010,2572 3013,2569 3015,2569 3018,2566 3018,2565 3019,2564 3019,2563 3020,2562 3020,2559 3021,2558 3021,2556 3022,2555 3022,2554 3026,2550 3027,2550 3029,2548 3030,2548 3032,2546 3032,2542 3034,2540 3034,2539 3035,2538 3036,2538 3036,2536 3037,2535 3037,2534 3038,2533 3038,2532 3039,2531 3039,2530 3041,2528 3042,2529 3043,2528 3044,2528 3045,2527 3045,2526 3046,2525 3046,2521 3047,2520 3047,2518 3048,2517 3048,2516 3050,2514 3050,2513 3051,2512 3052,2512 3054,2510 3055,2510 3056,2509 3056,2508 3057,2507 3057,2506 3058,2505 3058,2503 3059,2502 3059,2501 3060,2500 3060,2498 3061,2497 3061,2496 3062,2495 3063,2495 3063,2494 3065,2492 3065,2490 3066,2489 3066,2488 3068,2486 3069,2486 3070,2485 3070,2484 3071,2483 3071,2480 3072,2479 3072,2477 3073,2476 3073,2475 3075,2473 3076,2473 3076,2471 3079,2468 3079,2467 3080,2466 3080,2463 3081,2462 3082,2462 3086,2458 3086,2457 3087,2456 3087,2451 3088,2450 3088,2449 3089,2448 3089,2445 3092,2442 3092,2441 3095,2438 3096,2438 3097,2437 3097,2436 3098,2435 3098,2433 3099,2432 3098,2431 3099,2430 3100,2430 3100,2428 3101,2427 3101,2426 3102,2425 3102,2423 3103,2422 3103,2421 3102,2420 3105,2417 3105,2416 3107,2414 3107,2413 3108,2412 3109,2413 3110,2412 3110,2411 3111,2410 3111,2409 3112,2408 3111,2407 3112,2406 3112,2402 3114,2400 3114,2397 3115,2396 3114,2395 3114,2393 3115,2392 3115,2391 3117,2389 3117,2388 3119,2386 3119,2385 3121,2383 3121,2382 3122,2381 3123,2381 3123,2380 3125,2378 3125,2377 3126,2376 3126,2368 3127,2367 3127,2364 3128,2363 3128,2361 3129,2360 3129,2359 3130,2358 3130,2356 3131,2355 3131,2354 3134,2351 3135,2351 3138,2348 3138,2347 3139,2346 3139,2343 3140,2342 3138,2340 3138,2338 3139,2337 3139,2336 3140,2335 3140,2334 3141,2333 3141,2330 3142,2329 3142,2326 3143,2325 3143,2324 3145,2322 3146,2322 3147,2321 3147,2320 3148,2319 3149,2319 3148,2318 3148,2317 3152,2313 3152,2311 3153,2310 3153,2308 3154,2307 3154,2298 3155,2297 3155,2291 3156,2290 3156,2289 3159,2286 3158,2285 3159,2284 3160,2284 3161,2283 3162,2283 3163,2282 3164,2282 3166,2280 3166,2279 3167,2278 3167,2276 3168,2275 3167,2274 3168,2273 3168,2265 3170,2263 3170,2262 3171,2261 3171,2257 3172,2256 3172,2254 3173,2253 3173,2252 3174,2251 3174,2250 3176,2248 3177,2249 3180,2246 3180,2245 3181,2244 3181,2234 3182,2233 3182,2231 3184,2229 3183,2228 3184,2227 3184,2226 3185,2225 3185,2218 3186,2217 3186,2214 3188,2212 3188,2211 3189,2210 3188,2209 3189,2208 3189,2207 3191,2205 3191,2204 3192,2203 3192,2202 3193,2201 3193,2199 3194,2198 3194,2195 3195,2194 3195,2192 3196,2191 3196,2190 3195,2189 3196,2188 3196,2186 3197,2185 3197,2176 3198,2175 3198,2168 3199,2167 3199,2165 3198,2164 3199,2163 3199,2161 3200,2160 3200,2159 3201,2158 3202,2159 3202,2158 3201,2157 3201,2154 3202,2153 3204,2153 3205,2152 3205,2150 3206,2149 3206,2148 3207,2147 3207,2142 3208,2141 3207,2140 3207,2139 3208,2138 3208,2135 3209,2134 3209,2131 3210,2130 3210,2124 3211,2123 3211,2120 3210,2119 3211,2118 3211,2108 3212,2107 3212,2104 3213,2103 3213,2101 3214,2100 3214,2097 3215,2096 3215,2094 3216,2093 3216,2090 3217,2089 3217,2086 3218,2085 3218,2082 3219,2081 3219,2080 3218,2079 3218,2078 3219,2077 3219,2076 3218,2075 3219,2074 3219,2073 3220,2072 3220,2068 3221,2067 3221,2066 3222,2065 3222,2060 3223,2059 3223,2054 3224,2053 3224,2050 3223,2049 3224,2048 3224,2035 3225,2034 3225,2023 3226,2022 3225,2021 3227,2019 3226,2018 3226,2014 3227,2013 3226,2012 3227,2011 3226,2010 3227,2009 3227,2004 3228,2003 3228,2002 3227,2001 3228,2000 3229,2000 3229,1999 3228,1998 3228,1997 3229,1996 3229,1994 3230,1993 3229,1992 3230,1991 3230,1987 3231,1986 3231,1979 3230,1978 3231,1977 3231,1975 3230,1974 3231,1973 3231,1972 3232,1971 3232,1959 3233,1958 3233,1946 3234,1945 3234,1938 3233,1937 3233,1934 3234,1933 3234,1929 3233,1928 3233,1927 3234,1926 3234,1916 3235,1915 3235,1913 3234,1912 3234,1905 3235,1904 3235,1887 3236,1886 3236,1862 3235,1861 3235,1854 3236,1853 3236,1851 3235,1850 3235,1826 3234,1825 3234,1803 3233,1802 3233,1792 3232,1791 3232,1784 3231,1783 3232,1782 3231,1781 3231,1770 3229,1768 3230,1767 3229,1766 3230,1765 3229,1765 3228,1764 3229,1763 3230,1763 3229,1762 3229,1759 3228,1758 3228,1757 3229,1756 3228,1755 3228,1753 3226,1751 3226,1745 3225,1744 3226,1743 3225,1742 3225,1727 3224,1726 3225,1725 3224,1724 3224,1715 3223,1714 3223,1709 3222,1708 3222,1704 3221,1703 3221,1701 3220,1700 3220,1698 3219,1697 3219,1693 3218,1692 3218,1687 3217,1686 3217,1682 3215,1680 3215,1678 3214,1677 3214,1676 3215,1675 3214,1675 3213,1674 3214,1673 3213,1672 3214,1671 3214,1669 3213,1668 3213,1667 3212,1666 3213,1665 3212,1664 3212,1663 3211,1662 3211,1656 3210,1655 3210,1654 3211,1653 3211,1652 3210,1651 3211,1650 3211,1646 3210,1645 3210,1637 3209,1636 3209,1633 3208,1632 3208,1630 3207,1629 3207,1627 3206,1626 3206,1623 3205,1622 3205,1620 3204,1619 3204,1617 3203,1617 3200,1614 3200,1613 3199,1612 3199,1604 3198,1603 3198,1597 3197,1596 3198,1595 3198,1589 3197,1588 3197,1585 3196,1584 3196,1581 3195,1580 3195,1578 3194,1577 3194,1572 3193,1571 3193,1569 3191,1567 3191,1566 3190,1565 3190,1564 3189,1565 3188,1564 3188,1562 3187,1561 3187,1559 3186,1558 3186,1555 3185,1554 3185,1550 3184,1549 3184,1545 3183,1544 3183,1540 3182,1539 3182,1535 3181,1534 3182,1533 3181,1532 3181,1530 3180,1529 3180,1527 3177,1524 3177,1523 3175,1523 3174,1522 3174,1520 3173,1519 3173,1517 3172,1516 3172,1515 3170,1513 3170,1511 3169,1510 3169,1501 3168,1500 3168,1496 3167,1495 3167,1491 3166,1490 3166,1489 3164,1487 3163,1487 3162,1486 3161,1486 3159,1484 3159,1483 3157,1481 3157,1480 3156,1479 3156,1476 3155,1475 3155,1472 3154,1471 3154,1465 3153,1464 3153,1451 3152,1450 3152,1449 3150,1447 3149,1447 3147,1445 3147,1442 3146,1441 3146,1440 3145,1440 3141,1436 3141,1434 3140,1433 3140,1432 3141,1431 3141,1425 3140,1424 3140,1420 3139,1419 3138,1419 3136,1417 3136,1413 3135,1413 3133,1411 3132,1411 3131,1410 3131,1409 3130,1408 3130,1407 3129,1406 3129,1405 3128,1404 3128,1401 3127,1400 3127,1394 3126,1393 3126,1392 3125,1391 3125,1388 3124,1387 3124,1385 3123,1385 3122,1384 3122,1382 3120,1380 3119,1380 3117,1378 3117,1377 3116,1377 3115,1376 3115,1371 3114,1370 3115,1369 3114,1368 3114,1367 3112,1365 3112,1359 3111,1358 3111,1357 3109,1355 3108,1356 3106,1354 3105,1354 3104,1353 3104,1352 3103,1351 3103,1350 3102,1349 3102,1344 3101,1343 3100,1343 3098,1341 3098,1336 3097,1335 3097,1333 3096,1332 3094,1332 3092,1330 3092,1329 3091,1328 3091,1327 3090,1326 3090,1325 3088,1323 3088,1322 3086,1320 3086,1315 3085,1314 3085,1312 3084,1311 3084,1310 3083,1309 3083,1308 3082,1307 3081,1308 3077,1304 3078,1303 3076,1301 3076,1299 3075,1299 3074,1298 3074,1296 3073,1295 3074,1294 3073,1293 3073,1292 3071,1290 3071,1287 3070,1286 3070,1285 3069,1284 3067,1284 3066,1283 3066,1282 3063,1279 3064,1278 3063,1277 3063,1276 3062,1275 3062,1274 3058,1270 3058,1269 3057,1268 3057,1265 3056,1264 3057,1263 3056,1262 3056,1260 3053,1257 3053,1256 3052,1255 3051,1255 3050,1254 3050,1253 3047,1250 3047,1245 3046,1244 3046,1242 3044,1240 3041,1240 3039,1238 3039,1235 3038,1234 3038,1233 3034,1229 3034,1228 3033,1227 3033,1226 3032,1225 3032,1222 3028,1218 3028,1217 3026,1215 3025,1215 3024,1214 3023,1214 3021,1212 3021,1210 3022,1209 3021,1208 3021,1207 3017,1203 3016,1203 3015,1202 3015,1201 3013,1199 3013,1196 3012,1196 3008,1192 3008,1191 3004,1187 3004,1182 3001,1179 3000,1179 2999,1178 2996,1178 2994,1176 2994,1174 2993,1173 2993,1170 2992,1170 2991,1169 2991,1168 2989,1166 2989,1165 2987,1163 2984,1163 2981,1160 2981,1158 2980,1157 2980,1156 2978,1154 2978,1153 2977,1152 2977,1151 2975,1149 2975,1148 2974,1147 2972,1147 2966,1141 2966,1140 2960,1134 2960,1133 2957,1130 2956,1130 2952,1126 2952,1125 2951,1124 2951,1123 2949,1121 2949,1120 2946,1117 2946,1115 2944,1113 2943,1113 2942,1114 2941,1113 2940,1113 2938,1111 2938,1110 2937,1109 2937,1106 2933,1102 2933,1101 2932,1100 2931,1100 2928,1097 2927,1097 2926,1096 2926,1095 2923,1092 2923,1091 2922,1090 2922,1089 2921,1088 2920,1088 2916,1084 2915,1084 2909,1078 2909,1077 2907,1075 2907,1073 2905,1071 2904,1071 2903,1070 2902,1070 2899,1067 2899,1066 2898,1065 2898,1064 2897,1063 2897,1062 2896,1061 2896,1060 2895,1060 2893,1058 2893,1056 2892,1055 2889,1055 2888,1054 2887,1054 2883,1050 2883,1049 2882,1048 2882,1046 2880,1044 2879,1044 2878,1043 2876,1043 2874,1041 2874,1040 2872,1038 2872,1036 2871,1036 2870,1035 2869,1035 2868,1034 2868,1032 2867,1031 2868,1030 2866,1028 2862,1028 2861,1027 2860,1027 2857,1024 2857,1022 2856,1021 2856,1019 2855,1018 2855,1017 2854,1016 2853,1016 2852,1015 2849,1015 2848,1014 2847,1014 2846,1013 2846,1012 2844,1010 2843,1010 2840,1007 2840,1006 2841,1005 2839,1003 2838,1003 2837,1002 2835,1002 2832,999 2831,999 2829,997 2828,997 2826,995 2826,994 2822,990 2823,989 2820,986 2819,986 2818,985 2815,985 2812,982 2811,982 2810,981 2811,980 2809,978 2808,978 2807,977 2806,977 2805,976 2804,976 2803,975 2802,975 2797,970 2797,968 2796,967 2795,967 2794,966 2793,967 2790,964 2789,964 2787,962 2786,962 2783,959 2782,959 2781,958 2779,958 2777,956 2777,955 2776,954 2776,953 2773,950 2772,950 2771,949 2770,950 2769,949 2768,949 2767,950 2765,948 2764,948 2763,947 2762,947 2758,943 2758,942 2757,941 2757,939 2756,939 2754,937 2753,938 2752,937 2751,937 2750,936 2749,936 2746,933 2744,933 2743,932 2742,933 2741,932 2740,932 2738,930 2739,929 2739,928 2738,927 2738,926 2736,924 2735,924 2732,921 2728,921 2727,920 2725,920 2724,919 2723,919 2717,913 2717,910 2716,909 2714,909 2713,908 2712,909 2711,909 2710,908 2709,908 2708,907 2706,907 2705,906 2704,906 2703,905 2702,905 2701,904 2701,903 2700,903 2694,897 2694,896 2692,894 2691,894 2690,893 2686,893 2685,892 2684,892 2683,891 2683,890 2682,889 2681,889 2675,883 2674,883 2673,882 2672,882 2671,881 2670,881 2669,880 2667,880 2666,879 2665,879 2664,878 2665,877 2664,878 2662,876 2660,876 2659,875 2657,875 2655,873 2655,872 2654,871 2654,870 2653,869 2653,868 2652,867 2651,867 2650,866 2645,866 2644,865 2642,865 2641,864 2638,864 2634,860 2633,860 2632,859 2632,858 2630,856 2630,854 2627,851 2625,851 2624,850 2623,851 2622,850 2617,850 2616,849 2613,849 2609,845 2609,843 2606,840 2605,840 2604,839 2603,839 2602,838 2597,838 2596,837 2595,838 2594,837 2593,837 2592,836 2586,836 2585,835 2584,835 2583,834 2582,834 2580,832 2580,830 2581,829 2578,826 2577,826 2576,825 2575,825 2574,824 2571,824 2570,823 2561,823 2560,822 2559,822 2558,821 2558,820 2557,819 2556,819 2555,818 2555,817 2551,813 2550,813 2549,812 2547,812 2546,811 2543,811 2542,810 2541,810 2540,809 2540,808 2539,808 2538,807 2532,807 2531,806 2530,806 2528,804 2528,803 2527,802 2526,802 2525,801 2524,801 2523,800 2521,800 2520,799 2519,800 2518,799 2517,799 2515,797 2510,797 2509,796 2508,796 2507,795 2505,795 2504,794 2503,794 2502,793 2501,793 2499,791 2499,790 2498,790 2497,789 2495,789 2494,788 2492,788 2491,787 2490,787 2489,786 2487,786 2486,785 2484,785 2483,784 2478,784 2477,783 2475,783 2474,782 2472,782 2471,781 2469,781 2467,779 2466,779 2465,778 2465,776 2464,776 2462,774 2460,774 2459,773 2457,773 2456,772 2449,772 2448,771 2443,771 2442,770 2441,770 2439,768 2438,768 2437,767 2434,767 2433,766 2433,765 2432,765 2431,764 2430,765 2429,764 2428,764 2427,763 2427,762 2426,762 2425,761 2423,761 2422,760 2417,760 2416,759 2415,760 2414,759 2412,759 2411,758 2409,758 2408,757 2407,757 2406,758 2402,758 2401,757 2400,757 2399,756 2398,756 2397,755 2393,755 2392,754 2389,754 2388,753 2382,753 2381,752 2381,751 2380,750 2381,749 2380,749 2379,748 2378,748 2377,747 2374,747 2373,746 2369,746 2368,745 2367,746 2366,745 2362,745 2361,744 2360,745 2359,744 2354,744 2353,743 2348,743 2347,742 2343,742 2342,741 2340,741 2339,740 2338,740 2337,739 2336,739 2335,738 2333,738 2332,737 2331,737 2329,735 2328,735 2327,734 2326,735 2325,734 2324,734 2323,733 2322,733 2321,732 2313,732 2312,731 2311,731 2310,730 2296,730 2295,729 2293,729 2292,730 2286,730 2285,729 2280,729 2279,728 2278,728 2277,727 2276,727 2275,726 2273,726 2271,724 2271,723 2269,721 2267,721 2266,720 2260,720 2259,719 2256,719 2255,718 2253,718 2252,719 2245,719 2244,718 2236,718 2235,717 2228,717 2227,716 2203,716 2202,715 2201,715 2199,713 2199,712 2200,711 2200,709 2199,709 2198,708 2197,708 2196,707 2191,707 2190,706 Z" fill="#000066" stroke="#000066" /></svg>