<?xml version="1.0" encoding="utf-8" ?>
<svg baseProfile="full" height="1017" version="1.1" width="1280" xmlns="http://www.w3.org/2000/svg" xmlns:ev="http://www.w3.org/2001/xml-events" xmlns:xlink="http://www.w3.org/1999/xlink"><defs /><path d="M 596,89 L 595,90 592,90 590,92 586,92 585,93 576,93 575,94 568,94 567,95 565,95 564,96 562,96 561,97 555,97 554,98 550,98 549,99 547,99 546,100 544,100 543,101 540,101 539,102 534,102 533,103 532,103 531,104 529,104 528,105 526,105 525,106 522,106 521,107 519,107 518,108 516,108 515,109 513,109 512,110 510,110 509,111 507,111 506,112 505,112 504,113 502,113 501,114 499,114 497,116 495,116 494,117 492,117 491,118 489,118 487,120 486,120 485,121 483,121 482,122 480,122 477,125 476,125 475,126 472,126 470,128 469,128 467,130 466,130 465,131 463,131 462,132 461,132 459,134 458,134 457,135 456,135 455,136 454,136 452,138 451,138 450,139 449,139 448,140 446,140 443,143 442,143 441,144 440,144 437,147 436,147 435,148 434,148 430,152 429,152 428,153 427,153 424,156 422,156 418,160 417,160 415,162 414,162 411,165 410,165 409,166 408,166 401,173 400,173 396,177 395,177 391,181 390,181 381,190 380,190 366,204 366,205 362,209 362,210 359,213 358,213 358,214 354,218 354,219 349,224 349,225 342,232 342,233 341,234 341,235 334,242 334,243 331,246 331,247 329,249 329,250 328,251 328,252 324,256 324,257 322,259 322,260 320,262 320,263 319,264 319,265 317,267 317,268 315,270 315,271 314,272 314,273 312,275 312,276 310,278 310,279 309,280 309,281 308,282 308,283 307,284 307,285 306,286 306,287 305,288 305,289 304,290 304,291 303,292 303,293 302,294 302,295 301,296 301,297 299,299 299,301 298,302 298,304 297,305 297,306 296,307 296,308 295,309 295,311 294,312 294,314 293,315 293,316 291,318 291,319 290,320 290,322 289,323 289,325 288,326 288,327 287,328 287,329 286,330 286,333 285,334 285,337 284,338 284,339 283,340 283,341 282,342 282,345 281,346 281,349 280,350 280,353 278,355 278,357 277,358 277,361 276,362 276,365 275,366 275,367 274,368 274,371 273,372 273,375 272,376 272,381 271,382 271,385 270,386 270,388 269,389 269,393 268,394 268,401 267,402 267,407 266,408 266,413 265,414 265,420 264,421 264,439 263,440 263,471 264,472 264,490 265,491 265,499 266,500 266,505 267,506 267,511 268,512 268,520 269,521 269,525 270,526 270,529 271,530 271,533 272,534 272,539 273,540 273,543 274,544 274,547 275,548 275,550 276,551 276,555 277,556 277,559 278,560 278,562 279,563 279,564 280,565 280,566 281,567 281,570 282,571 282,575 283,576 283,577 285,579 285,582 286,583 286,586 287,587 287,588 288,589 288,590 289,591 289,592 290,593 290,595 291,596 291,598 292,599 292,600 293,601 293,602 294,603 294,605 295,606 295,607 296,608 296,610 298,612 298,614 299,615 299,617 300,618 300,619 301,620 301,621 302,622 302,623 303,624 303,625 304,626 304,627 305,628 305,629 306,630 306,631 307,632 307,633 309,635 309,636 310,637 310,639 313,642 313,643 314,644 314,645 315,646 315,647 318,650 318,651 319,652 319,653 320,654 320,655 323,658 323,659 324,660 324,661 327,664 327,665 330,668 330,669 332,671 332,672 333,673 333,674 337,678 337,679 340,682 340,683 342,685 342,686 344,688 344,689 345,689 348,692 348,693 357,702 357,703 358,704 358,705 359,706 359,708 353,714 352,714 352,715 346,721 345,721 338,728 337,728 336,729 329,722 329,721 324,716 324,715 320,711 320,710 317,707 317,706 314,703 314,702 312,700 312,699 308,695 308,694 305,691 305,690 304,689 304,688 302,686 301,686 300,685 298,685 297,684 296,684 295,685 294,685 291,688 290,688 288,690 287,690 285,692 284,692 282,694 280,694 276,698 275,698 274,699 273,699 272,700 267,700 266,699 264,699 263,698 261,698 260,697 258,697 257,696 253,696 252,695 249,695 248,694 240,694 239,693 235,693 234,692 232,692 231,691 226,691 225,690 214,690 213,689 203,689 202,688 176,688 175,689 163,689 162,690 150,690 149,691 144,691 143,692 141,692 140,693 136,693 135,694 131,694 130,695 126,695 125,696 122,696 121,697 119,697 118,698 114,698 113,699 109,699 108,700 104,700 103,701 101,701 100,702 98,702 97,703 96,703 95,704 93,704 92,705 91,705 90,706 88,706 87,707 86,707 85,708 84,708 83,709 80,709 79,710 77,710 75,712 74,712 73,713 72,713 71,714 69,714 66,717 64,717 63,718 62,718 61,719 60,719 58,721 57,721 56,722 54,722 52,724 51,724 49,726 48,726 47,727 46,727 45,728 44,728 43,729 43,735 44,736 46,736 47,737 48,737 49,738 51,738 52,737 58,737 59,736 63,736 64,735 68,735 69,734 74,734 75,733 84,733 85,734 93,734 94,735 100,735 101,736 106,736 107,737 110,737 111,738 113,738 114,739 115,739 116,740 120,740 121,741 124,741 125,742 127,742 129,744 131,744 132,745 136,745 137,746 139,746 141,748 142,748 143,749 145,749 146,750 148,750 149,751 150,751 152,753 153,753 154,754 155,754 156,755 157,755 158,756 159,756 161,758 162,758 165,761 165,763 162,766 161,766 160,767 159,767 158,768 157,768 155,770 154,770 152,772 151,772 150,773 149,773 148,774 147,774 144,777 143,777 142,778 141,778 138,781 137,781 136,782 135,782 131,786 130,786 126,790 125,790 122,793 121,793 119,795 118,795 97,816 97,817 94,820 94,821 90,825 90,826 88,828 88,829 87,830 87,831 85,833 85,834 84,835 84,836 82,838 82,839 81,840 81,841 80,842 80,843 79,844 79,845 78,846 78,847 77,848 77,849 76,850 76,851 75,852 75,854 74,855 74,857 72,859 72,861 71,862 71,864 70,865 70,868 69,869 69,872 68,873 68,875 67,876 67,879 66,880 66,883 65,884 65,890 64,891 64,895 63,896 63,903 62,904 62,913 64,915 65,915 66,916 67,916 68,915 70,915 72,913 72,911 73,910 73,907 74,906 74,904 75,903 75,902 76,901 76,899 77,898 77,896 79,894 79,893 81,891 81,890 82,889 82,888 83,887 83,886 85,884 85,883 87,881 87,880 90,877 90,876 94,872 94,871 106,859 107,859 114,852 115,852 117,850 118,850 121,847 122,847 123,846 124,846 126,844 127,844 128,843 129,843 130,842 131,842 132,841 133,841 135,839 137,839 138,838 139,838 140,837 143,837 145,835 146,835 147,834 150,834 151,833 155,833 157,831 161,831 162,830 166,830 167,829 176,829 177,828 199,828 200,829 211,829 212,830 216,830 217,831 220,831 222,833 224,833 225,834 227,834 230,837 237,837 249,825 250,825 253,822 254,822 255,821 258,821 264,827 264,828 275,839 276,839 280,843 281,843 296,858 297,858 305,866 306,866 307,867 311,867 312,866 313,866 315,864 315,863 316,862 316,861 319,858 319,857 320,856 320,855 321,854 321,853 324,850 324,849 326,847 326,846 330,842 330,841 333,838 333,837 339,831 339,830 343,826 343,825 347,821 347,820 353,814 357,814 360,817 361,817 364,820 365,820 368,823 369,823 371,825 372,825 376,829 377,829 379,831 380,831 383,834 384,834 387,837 388,837 389,838 391,838 392,839 393,839 395,841 396,841 397,842 398,842 399,843 400,843 402,845 403,845 404,846 405,846 406,847 407,847 408,848 409,848 411,850 412,850 413,851 414,851 415,852 416,852 419,855 420,855 421,856 422,856 424,858 425,858 426,859 427,859 428,860 429,860 430,861 431,861 432,862 433,862 435,864 436,864 437,865 439,865 440,866 441,866 443,868 444,868 445,869 447,869 448,870 449,870 450,871 451,871 452,872 453,872 454,873 457,873 458,874 460,874 461,875 462,875 463,876 464,876 465,877 466,877 467,878 469,878 470,879 472,879 473,880 474,880 475,881 477,881 478,882 479,882 480,883 482,883 483,884 485,884 486,885 488,885 489,886 490,886 491,887 492,887 493,888 496,888 497,889 499,889 500,890 501,890 502,891 504,891 505,892 508,892 509,893 514,893 515,894 516,894 517,895 519,895 520,896 523,896 524,897 530,897 531,898 534,898 535,899 537,899 538,900 540,900 541,901 548,901 549,902 554,902 555,903 559,903 560,904 562,904 563,905 570,905 571,906 583,906 584,907 586,907 587,908 589,908 590,909 592,909 593,910 612,910 613,911 657,911 658,910 675,910 676,909 682,909 683,908 688,908 689,907 693,907 694,906 705,906 706,905 713,905 714,904 715,904 716,903 719,903 720,902 724,902 725,901 732,901 733,900 735,900 736,899 738,899 739,898 741,898 742,897 749,897 750,896 753,896 754,895 755,895 756,894 758,894 759,893 763,893 764,892 768,892 769,891 770,891 771,890 772,890 773,889 776,889 777,888 779,888 780,887 782,887 783,886 784,886 785,885 787,885 788,884 790,884 791,883 793,883 794,882 795,882 796,881 798,881 799,880 801,880 802,879 803,879 804,878 806,878 807,877 808,877 809,876 810,876 811,875 813,875 814,874 815,874 816,873 818,873 819,872 820,872 822,870 823,870 824,869 827,869 829,867 830,867 831,866 832,866 833,865 835,865 836,864 837,864 839,862 840,862 842,860 844,860 845,859 846,859 848,857 849,857 851,855 852,855 853,854 854,854 856,852 857,852 858,851 859,851 860,850 861,850 864,847 866,847 867,846 868,846 869,845 870,845 872,843 873,843 874,842 875,842 876,841 877,841 880,838 881,838 882,837 883,837 886,834 887,834 888,833 889,833 890,832 891,832 893,830 894,830 896,828 897,828 900,825 904,825 908,829 908,830 910,832 910,833 912,835 912,836 915,839 915,840 918,843 918,844 920,846 920,847 923,850 923,851 926,854 926,855 928,857 928,858 930,860 930,861 932,863 932,864 934,866 934,867 937,870 937,871 938,872 938,873 940,875 941,875 942,876 944,876 945,875 946,875 950,871 951,871 958,864 959,864 966,857 967,857 978,846 979,846 983,842 984,842 992,834 993,834 998,829 1000,829 1006,835 1006,836 1013,843 1013,844 1022,853 1025,853 1026,854 1027,854 1028,853 1031,853 1032,852 1036,852 1037,851 1042,851 1043,850 1051,850 1052,849 1070,849 1071,850 1077,850 1078,851 1083,851 1084,852 1087,852 1088,853 1090,853 1091,854 1093,854 1094,855 1098,855 1099,856 1100,856 1101,857 1103,857 1104,858 1105,858 1106,859 1107,859 1108,860 1111,860 1112,861 1113,861 1115,863 1116,863 1117,864 1118,864 1119,865 1120,865 1122,867 1123,867 1125,869 1127,869 1131,873 1132,873 1136,877 1137,877 1144,884 1144,885 1149,890 1149,891 1150,892 1150,893 1154,897 1154,898 1155,899 1155,900 1160,905 1160,906 1162,908 1162,909 1163,910 1163,911 1166,914 1166,915 1167,916 1167,917 1168,918 1168,920 1170,922 1170,923 1171,924 1171,926 1172,927 1172,930 1173,931 1173,932 1174,933 1174,935 1175,936 1175,940 1176,941 1176,949 1177,950 1177,962 1178,963 1178,965 1179,965 1180,966 1185,966 1186,965 1187,965 1187,962 1188,961 1188,959 1189,958 1189,955 1190,954 1190,949 1191,948 1191,914 1190,913 1190,908 1189,907 1189,905 1188,904 1188,902 1187,901 1187,899 1186,898 1186,894 1185,893 1185,891 1183,889 1183,888 1182,887 1182,885 1181,884 1181,882 1180,881 1180,880 1179,879 1179,878 1178,877 1178,876 1177,875 1177,873 1176,872 1176,871 1175,870 1175,869 1173,867 1173,865 1172,864 1172,862 1171,861 1171,860 1169,858 1169,857 1168,856 1168,854 1167,853 1167,852 1166,851 1166,850 1165,849 1165,848 1164,847 1164,846 1163,845 1163,844 1160,841 1160,840 1159,839 1159,838 1154,833 1154,832 1143,821 1142,821 1135,814 1134,814 1132,812 1131,812 1129,810 1128,810 1126,808 1125,808 1123,806 1122,806 1121,805 1120,805 1119,804 1118,804 1117,803 1116,803 1115,802 1114,802 1112,800 1109,800 1108,799 1106,799 1105,798 1102,798 1101,797 1099,797 1096,794 1100,790 1101,790 1102,789 1103,789 1104,788 1106,788 1107,787 1109,787 1110,786 1111,786 1112,785 1113,785 1115,783 1117,783 1118,782 1119,782 1120,781 1121,781 1122,780 1123,780 1124,779 1125,779 1126,778 1128,778 1129,777 1131,777 1132,776 1133,776 1134,775 1136,775 1137,774 1139,774 1140,773 1143,773 1144,772 1146,772 1147,771 1148,771 1149,770 1151,770 1152,769 1160,769 1161,768 1165,768 1166,767 1168,767 1169,766 1171,766 1172,765 1175,765 1176,764 1188,764 1189,765 1194,765 1195,766 1196,766 1197,767 1199,767 1200,768 1202,768 1203,769 1205,769 1206,770 1207,770 1208,771 1209,771 1210,772 1213,772 1214,771 1214,760 1213,759 1212,759 1211,758 1210,758 1209,757 1208,757 1205,754 1204,754 1201,751 1200,751 1198,749 1197,749 1196,748 1195,748 1194,747 1193,747 1192,746 1191,746 1190,745 1189,745 1188,744 1185,744 1184,743 1183,743 1181,741 1180,741 1179,740 1177,740 1176,739 1175,739 1172,736 1170,736 1169,735 1168,735 1167,734 1166,734 1164,732 1162,732 1161,731 1159,731 1158,730 1157,730 1156,729 1155,729 1154,728 1152,728 1151,727 1149,727 1148,726 1146,726 1145,725 1144,725 1143,724 1142,724 1141,723 1139,723 1138,722 1134,722 1133,721 1132,721 1131,720 1130,720 1129,719 1128,719 1127,718 1118,718 1117,717 1113,717 1112,716 1111,716 1110,715 1108,715 1107,714 1102,714 1101,713 1095,713 1094,712 1083,712 1082,711 1079,711 1078,710 1044,710 1043,711 1036,711 1035,712 1026,712 1025,713 1016,713 1015,714 1011,714 1010,715 1008,715 1007,716 1006,716 1005,717 1000,717 999,718 994,718 993,719 988,719 987,718 986,718 985,717 984,717 980,713 979,713 975,709 974,709 972,707 971,707 966,702 965,702 964,701 959,701 954,706 954,707 951,710 951,711 948,714 948,715 944,719 944,720 938,726 938,727 931,734 931,735 925,741 923,741 915,733 915,732 913,730 912,730 909,727 909,726 903,720 903,719 902,718 902,716 905,713 905,712 916,701 916,700 929,687 929,686 930,685 930,684 933,681 933,680 934,679 934,678 938,674 938,673 939,672 939,671 942,668 942,667 945,664 945,663 947,661 947,660 948,659 948,658 951,655 951,654 953,652 953,651 955,649 955,648 956,647 956,646 957,645 957,644 959,642 959,641 961,639 961,637 963,635 963,634 964,633 964,632 965,631 965,630 966,629 966,628 967,627 967,626 968,625 968,624 969,623 969,622 970,621 970,620 971,619 971,618 972,617 972,615 973,614 973,613 974,612 974,611 975,610 975,609 976,608 976,606 977,605 977,603 979,601 979,599 980,598 980,596 981,595 981,594 982,593 982,592 983,591 983,590 984,589 984,587 985,586 985,583 986,582 986,581 988,579 988,578 989,577 989,574 990,573 990,571 991,570 991,568 992,567 992,566 993,565 993,563 994,562 994,558 995,557 995,556 996,555 996,552 997,551 997,549 998,548 998,543 999,542 999,539 1000,538 1000,535 1001,534 1001,530 1002,529 1002,524 1003,523 1003,518 1004,517 1004,513 1005,512 1005,508 1006,507 1006,496 1007,495 1007,484 1008,483 1008,473 1009,472 1009,437 1008,436 1008,426 1007,425 1007,416 1006,415 1006,408 1005,407 1005,402 1004,401 1004,397 1003,396 1003,392 1002,391 1002,386 1001,385 1001,380 1000,379 1000,377 999,376 999,373 998,372 998,368 997,367 997,363 996,362 996,360 995,359 995,357 994,356 994,353 993,352 993,349 992,348 992,347 991,346 991,345 990,344 990,341 989,340 989,337 988,336 988,335 986,333 986,331 985,330 985,327 984,326 984,323 982,321 982,320 981,319 981,318 980,317 980,313 979,312 979,311 977,309 977,307 976,306 976,304 975,303 975,302 973,300 973,299 972,298 972,296 971,295 971,294 969,292 969,291 968,290 968,289 967,288 967,286 964,283 964,282 963,281 963,279 960,276 960,275 959,274 959,273 958,272 958,271 956,269 956,268 955,267 955,266 954,265 954,264 953,263 953,262 951,260 951,258 948,255 948,254 946,252 946,251 944,249 944,248 942,246 942,245 939,242 939,241 937,239 937,238 932,233 932,232 929,229 929,228 921,220 921,219 908,206 908,205 903,200 903,199 902,199 895,192 895,191 894,191 884,181 883,181 876,174 875,174 871,170 870,170 868,168 867,168 865,166 864,166 862,164 861,164 857,160 856,160 854,158 853,158 852,157 851,157 848,154 847,154 845,152 844,152 841,149 840,149 839,148 838,148 834,144 832,144 831,143 830,143 827,140 826,140 825,139 824,139 822,137 821,137 819,135 817,135 816,134 815,134 813,132 812,132 811,131 809,131 808,130 807,130 806,129 805,129 802,126 799,126 798,125 797,125 795,123 794,123 793,122 791,122 790,121 789,121 788,120 787,120 786,119 785,119 784,118 782,118 781,117 779,117 778,116 777,116 776,115 775,115 774,114 772,114 771,113 770,113 769,112 768,112 767,111 765,111 764,110 762,110 761,109 759,109 758,108 757,108 756,107 754,107 753,106 749,106 748,105 746,105 745,104 742,104 741,103 740,103 739,102 734,102 733,101 731,101 730,100 728,100 727,99 724,99 723,98 719,98 718,97 712,97 711,96 709,96 708,95 705,95 704,94 698,94 697,93 689,93 688,92 683,92 681,90 677,90 676,89 Z" fill="#123380" stroke="#123380" /></svg>