<?xml version="1.0" encoding="utf-8" ?>
<svg baseProfile="full" height="4096" version="1.1" width="4096" xmlns="http://www.w3.org/2000/svg" xmlns:ev="http://www.w3.org/2001/xml-events" xmlns:xlink="http://www.w3.org/1999/xlink"><defs /><path d="M 549,3134 548,3135 547,3135 547,3138 546,3139 546,3142 544,3144 544,3147 545,3148 545,3149 546,3150 546,3151 547,3151 549,3153 553,3149 553,3147 552,3146 552,3144 551,3144 550,3143 551,3142 551,3140 552,3139 552,3135 551,3134 Z" fill="#000066" stroke="#000066" /><path d="M 2921,486 2920,487 2915,487 2913,489 2913,490 2914,491 2918,491 2919,492 2921,492 2922,493 2926,493 2929,496 2930,496 2931,497 2931,498 2933,500 2933,501 2935,501 2936,500 2937,500 2936,499 2937,498 2933,494 2932,494 2931,493 2931,492 2927,488 2926,488 2925,487 2923,487 2922,486 Z" fill="#000066" stroke="#000066" /><path d="M 2947,473 2946,474 2945,474 2944,475 2944,479 2945,480 2946,480 2947,481 2950,481 2951,482 2958,482 2959,481 2960,481 2962,479 2962,476 2960,474 2959,474 2958,473 Z" fill="#000066" stroke="#000066" /><path d="M 2701,376 2700,377 2695,377 2694,378 2693,378 2692,379 2691,379 2690,380 2690,381 2689,382 2689,385 2690,386 2690,387 2691,388 2693,388 2694,389 2695,389 2696,390 2696,391 2697,390 2698,390 2699,389 2700,389 2702,387 2704,387 2708,383 2708,380 2706,378 2705,378 2704,377 2702,377 Z" fill="#000066" stroke="#000066" /><path d="M 2118,266 2117,267 1806,267 1805,268 1765,268 1764,269 1763,269 1762,268 1761,269 1760,269 1759,270 1759,273 1757,275 1755,275 1754,276 1753,276 1752,277 1750,277 1749,278 1745,278 1744,279 1732,279 1731,280 1730,280 1726,284 1725,284 1723,286 1722,285 1718,285 1717,286 1712,286 1711,287 1708,287 1707,288 1700,288 1697,285 1691,285 1690,286 1689,286 1687,288 1686,288 1685,289 1684,289 1683,290 1682,290 1680,292 1679,292 1678,293 1678,294 1677,295 1676,295 1675,296 1673,296 1672,297 1664,297 1663,298 1662,297 1661,297 1660,298 1657,298 1656,299 1655,298 1652,298 1651,299 1648,299 1647,300 1637,300 1636,299 1634,299 1633,298 1632,299 1631,299 1630,298 1629,298 1628,299 1627,299 1628,300 1628,302 1629,303 1628,304 1627,304 1625,306 1624,306 1623,307 1621,307 1620,308 1616,308 1615,309 1613,309 1611,311 1610,310 1604,310 1603,311 1601,311 1600,312 1599,312 1596,315 1595,315 1593,317 1592,317 1592,318 1591,319 1590,318 1584,318 1583,319 1582,318 1579,321 1578,320 1577,320 1578,321 1577,322 1575,322 1574,323 1573,322 1572,322 1571,323 1570,323 1569,322 1568,323 1565,323 1564,324 1560,324 1559,325 1557,325 1556,326 1554,326 1553,325 1549,325 1548,326 1547,325 1546,325 1545,326 1544,325 1540,325 1539,326 1532,326 1531,327 1511,327 1510,328 1509,327 1508,327 1507,328 1505,328 1504,329 1503,329 1502,330 1499,330 1498,331 1497,331 1496,330 1495,330 1494,329 1493,329 1491,327 1488,327 1487,328 1486,328 1486,334 1485,335 1485,336 1483,338 1482,338 1481,339 1479,339 1479,340 1477,342 1475,342 1474,343 1473,342 1471,344 1469,344 1468,345 1466,345 1465,346 1464,346 1461,349 1460,349 1459,350 1457,350 1453,354 1452,354 1451,355 1449,355 1448,356 1446,356 1446,357 1445,358 1444,357 1444,356 1443,357 1438,357 1437,358 1436,358 1435,357 1434,357 1433,358 1432,358 1431,359 1430,359 1429,360 1428,360 1427,361 1425,361 1424,360 1423,361 1421,361 1420,362 1419,362 1418,363 1418,364 1416,366 1415,366 1414,367 1413,367 1412,368 1407,368 1406,369 1402,369 1401,370 1396,370 1395,371 1394,370 1390,370 1389,371 1388,371 1387,372 1386,372 1385,373 1384,372 1382,374 1382,375 1381,376 1382,377 1381,378 1377,378 1376,379 1374,379 1372,381 1371,381 1370,382 1369,382 1368,383 1367,383 1363,387 1362,387 1361,388 1356,388 1354,390 1353,390 1352,391 1350,391 1349,392 1342,392 1341,393 1335,393 1334,392 1332,392 1330,390 1328,390 1327,391 1323,391 1322,392 1322,394 1321,395 1321,396 1322,397 1322,398 1319,401 1317,401 1316,400 1315,401 1301,401 1300,400 1299,401 1298,401 1297,400 1296,400 1295,401 1290,401 1289,402 1285,402 1285,403 1284,404 1283,403 1283,404 1282,405 1282,407 1283,408 1282,409 1283,410 1283,411 1282,412 1281,412 1280,413 1279,412 1279,413 1278,414 1276,414 1275,415 1273,415 1270,418 1268,418 1267,419 1266,419 1265,420 1264,419 1263,419 1262,420 1261,420 1259,422 1258,422 1257,423 1256,423 1255,424 1252,424 1251,425 1251,427 1249,429 1248,429 1247,430 1244,430 1243,429 1242,429 1241,428 1240,428 1239,429 1238,429 1237,430 1237,431 1236,432 1236,435 1237,436 1237,438 1231,444 1230,444 1229,445 1227,445 1226,446 1225,446 1224,445 1223,446 1222,446 1222,447 1221,448 1220,448 1219,449 1214,449 1213,450 1211,450 1210,451 1207,451 1206,452 1204,452 1203,453 1202,452 1201,452 1200,453 1199,453 1198,454 1197,453 1195,455 1194,455 1192,457 1192,458 1188,462 1186,462 1183,459 1176,459 1175,460 1173,460 1172,461 1171,461 1170,462 1169,462 1169,463 1168,464 1169,465 1169,466 1168,467 1170,469 1170,470 1171,471 1169,473 1169,474 1168,475 1167,475 1166,476 1164,476 1163,477 1159,477 1158,476 1152,476 1151,477 1146,477 1145,476 1146,477 1145,478 1144,478 1143,479 1143,482 1142,483 1142,484 1141,485 1141,486 1140,487 1139,487 1138,488 1133,488 1132,487 1127,487 1126,486 1117,486 1116,487 1115,487 1114,488 1114,491 1115,492 1115,493 1116,494 1117,494 1119,496 1120,496 1121,497 1122,497 1123,498 1123,500 1120,503 1119,503 1118,504 1117,504 1116,505 1114,505 1111,508 1111,509 1109,511 1108,511 1107,512 1102,512 1101,513 1098,513 1097,514 1096,514 1094,516 1093,516 1092,517 1089,517 1088,518 1080,518 1079,517 1079,518 1078,519 1077,518 1077,519 1075,521 1074,521 1072,523 1071,523 1069,525 1068,525 1067,526 1066,526 1057,535 1057,536 1055,538 1054,538 1054,539 1051,542 1050,542 1047,545 1046,545 1046,546 1045,547 1044,547 1043,548 1042,547 1041,548 1038,548 1037,549 1036,549 1035,550 1033,550 1032,551 1030,551 1029,552 1028,552 1027,553 1025,553 1024,554 1022,554 1021,555 1018,555 1018,556 1017,557 1016,557 1014,559 1012,559 1009,562 1010,563 1010,564 1009,565 1009,567 1007,569 1004,569 1003,570 1002,570 1000,572 999,572 998,573 997,573 994,570 989,570 986,573 986,579 984,581 983,581 982,582 977,582 976,583 974,583 973,584 973,585 972,586 971,586 971,588 969,590 967,590 966,591 965,591 964,592 964,593 963,594 962,594 958,598 957,598 956,599 955,599 954,600 953,600 952,601 951,601 950,602 948,602 947,603 946,603 945,604 944,604 943,605 943,606 942,607 939,607 938,608 936,608 934,610 934,611 933,612 934,613 934,620 933,621 932,621 925,628 925,629 924,630 924,631 920,635 917,635 916,636 915,636 914,637 913,637 910,640 910,641 909,642 908,642 907,643 906,643 905,644 904,644 903,645 897,645 896,646 896,647 895,648 895,649 887,657 887,658 885,660 884,660 883,661 883,665 882,666 882,668 883,669 882,670 881,670 880,669 881,670 880,671 876,671 875,670 874,671 872,671 871,672 869,672 865,676 865,677 864,678 864,679 863,680 863,681 860,684 860,689 859,690 859,691 857,693 855,693 854,692 853,692 852,693 851,693 847,697 847,698 846,699 845,699 843,701 842,701 840,703 839,703 837,705 836,705 834,707 833,707 831,709 829,709 829,710 825,714 824,714 822,716 821,716 817,720 815,720 813,722 812,722 811,723 810,723 808,725 799,725 798,726 797,726 796,727 795,727 793,729 793,730 792,731 792,735 793,736 793,743 792,744 792,745 790,747 790,748 786,752 783,752 782,751 782,750 780,748 780,747 779,746 772,746 771,747 770,747 769,748 769,749 768,750 768,753 769,754 769,755 777,755 778,756 778,759 776,761 776,762 770,768 769,768 764,773 764,774 763,775 762,775 761,776 760,776 759,775 758,775 756,773 756,772 754,770 753,771 752,770 749,770 748,771 747,771 741,777 741,779 740,780 739,780 739,782 738,783 738,785 737,786 737,787 731,793 727,793 726,794 723,794 721,796 721,797 719,799 719,800 718,801 718,802 717,803 717,804 716,805 716,807 715,808 715,810 713,812 713,814 712,815 712,816 711,817 711,818 709,820 709,821 703,827 702,827 701,828 699,828 697,830 697,835 696,836 696,838 695,839 696,840 695,841 694,841 694,842 692,844 691,844 690,845 689,844 685,844 682,841 681,841 680,840 679,840 678,839 677,839 676,840 676,841 674,843 674,845 675,846 674,847 675,848 675,856 676,857 675,858 675,859 674,860 674,861 672,863 672,864 671,865 671,870 666,875 666,881 665,882 665,883 664,884 661,884 660,885 659,885 654,890 653,890 652,891 651,891 650,892 649,892 648,893 646,893 645,894 645,895 644,896 644,897 642,899 642,901 636,907 635,907 633,909 632,909 630,911 626,911 625,910 625,909 624,908 624,907 623,906 622,906 621,905 620,906 619,906 617,908 617,912 618,913 619,913 620,914 621,914 622,915 622,916 623,917 623,922 624,923 624,925 623,926 623,927 619,931 618,931 617,932 616,932 615,933 613,933 612,932 611,932 610,931 608,931 606,933 606,935 605,936 605,938 604,939 604,941 603,942 603,945 602,946 602,947 601,948 601,949 600,950 600,951 598,953 597,953 592,958 592,959 590,961 590,962 588,964 587,964 587,965 586,966 586,967 584,969 584,970 583,971 582,971 573,980 573,981 572,982 571,982 570,983 568,983 567,984 565,984 564,985 560,985 559,986 558,986 556,988 557,989 556,990 557,991 554,994 554,995 552,997 552,998 553,999 553,1003 552,1004 552,1005 551,1006 551,1007 548,1010 548,1011 547,1012 547,1013 546,1014 546,1015 542,1019 541,1019 540,1020 539,1020 533,1026 533,1027 532,1028 530,1028 529,1029 524,1029 521,1032 521,1033 520,1034 520,1037 519,1038 519,1040 521,1042 520,1043 521,1043 522,1044 522,1045 523,1046 523,1050 522,1051 522,1052 519,1055 516,1055 515,1056 513,1056 511,1058 510,1058 510,1059 511,1060 511,1061 512,1062 512,1064 513,1065 513,1072 510,1075 510,1076 509,1077 509,1078 508,1079 508,1081 507,1082 507,1084 506,1085 506,1086 505,1087 505,1089 502,1092 501,1092 499,1094 495,1094 494,1095 493,1095 491,1097 491,1098 490,1099 489,1099 485,1103 485,1104 484,1105 483,1105 483,1106 481,1108 481,1111 479,1113 479,1114 477,1116 477,1117 476,1118 476,1119 475,1120 475,1121 473,1123 473,1124 472,1125 472,1126 471,1127 471,1128 469,1130 469,1132 468,1133 468,1135 467,1136 467,1137 466,1138 466,1139 465,1140 465,1141 463,1143 463,1144 462,1145 462,1148 461,1149 461,1153 460,1154 460,1155 459,1156 459,1157 458,1158 458,1159 457,1160 457,1161 450,1168 449,1168 447,1170 446,1170 443,1173 442,1172 443,1173 442,1174 442,1175 441,1176 441,1180 432,1189 429,1189 428,1188 428,1186 428,1190 429,1189 430,1190 430,1191 431,1192 431,1193 432,1194 432,1195 431,1196 431,1198 430,1199 430,1201 429,1202 429,1207 430,1208 430,1211 425,1216 424,1216 423,1217 417,1217 417,1218 418,1219 417,1220 417,1231 416,1232 416,1235 415,1236 415,1237 413,1239 412,1239 412,1247 411,1248 411,1249 410,1250 410,1251 409,1252 408,1252 408,1254 406,1256 406,1257 405,1258 405,1259 403,1261 403,1262 402,1263 402,1264 401,1265 400,1265 400,1266 399,1267 399,1269 398,1270 398,1271 393,1276 393,1277 391,1279 391,1280 390,1281 390,1282 389,1283 389,1284 388,1285 388,1286 387,1287 387,1288 386,1289 386,1290 385,1291 385,1292 384,1293 385,1294 384,1295 383,1295 384,1296 383,1297 382,1297 377,1302 376,1302 374,1300 372,1300 371,1299 372,1298 373,1298 372,1297 371,1297 370,1296 369,1296 369,1297 370,1298 370,1299 369,1300 369,1302 368,1303 367,1303 368,1304 368,1305 366,1307 366,1310 365,1311 365,1313 364,1314 365,1315 365,1317 364,1318 364,1319 365,1320 365,1321 364,1322 364,1323 363,1324 363,1326 364,1326 365,1327 365,1334 364,1335 364,1338 363,1339 363,1342 362,1343 362,1344 359,1347 358,1347 357,1348 356,1348 356,1352 355,1353 355,1358 352,1361 350,1361 350,1362 349,1363 349,1372 348,1373 348,1376 347,1377 347,1378 345,1380 345,1381 344,1382 344,1385 343,1386 343,1387 344,1388 344,1400 342,1402 342,1403 340,1405 340,1406 338,1408 337,1408 337,1409 336,1410 336,1416 335,1417 335,1419 336,1420 334,1422 334,1424 333,1425 333,1428 332,1429 334,1431 334,1433 332,1435 332,1436 331,1437 330,1436 330,1434 329,1434 328,1433 329,1432 326,1429 326,1428 325,1427 324,1427 323,1428 321,1428 320,1429 320,1430 319,1431 319,1435 320,1436 320,1437 321,1438 321,1440 323,1442 323,1444 324,1445 324,1447 323,1448 323,1450 321,1452 321,1454 320,1455 320,1461 321,1462 321,1463 322,1462 323,1463 323,1465 322,1466 321,1465 320,1465 320,1466 319,1467 318,1467 316,1469 315,1469 315,1470 313,1472 313,1474 314,1475 313,1476 313,1478 312,1479 312,1481 311,1482 311,1484 310,1485 310,1487 309,1488 309,1492 308,1493 308,1495 307,1496 308,1497 304,1501 302,1501 299,1504 300,1505 299,1506 299,1509 300,1510 300,1511 301,1512 301,1515 300,1516 300,1518 299,1519 299,1520 298,1521 297,1521 296,1520 293,1520 291,1518 291,1517 290,1516 291,1515 290,1515 289,1514 286,1517 286,1518 285,1519 285,1520 283,1522 283,1526 282,1527 282,1529 281,1530 281,1531 282,1532 281,1533 281,1534 280,1535 280,1538 281,1539 281,1540 282,1541 283,1541 284,1542 284,1543 285,1544 285,1549 284,1550 284,1556 285,1557 285,1561 282,1564 280,1564 279,1563 277,1563 275,1565 275,1567 274,1568 274,1570 275,1571 275,1575 276,1576 276,1580 275,1581 275,1589 274,1590 275,1591 275,1592 274,1593 274,1597 273,1598 274,1599 274,1600 275,1601 274,1602 275,1603 275,1605 274,1606 274,1609 275,1610 274,1611 273,1611 274,1612 274,1613 273,1614 273,1623 272,1624 273,1624 274,1625 273,1626 272,1626 272,1628 271,1629 271,1633 270,1634 270,1637 269,1638 269,1641 268,1642 268,1644 267,1645 267,1648 266,1649 266,1652 265,1653 265,1656 264,1657 264,1660 263,1661 263,1663 260,1666 259,1665 257,1667 257,1668 256,1669 256,1670 255,1671 255,1672 254,1673 255,1674 254,1675 254,1676 253,1677 253,1678 254,1679 254,1685 250,1689 250,1690 249,1691 249,1694 248,1695 248,1696 247,1697 247,1698 246,1699 246,1701 245,1702 245,1712 246,1713 245,1714 245,1715 244,1716 244,1718 243,1719 243,1724 242,1725 242,1731 241,1732 241,1736 240,1737 240,1741 239,1742 239,1746 238,1747 238,1751 240,1753 240,1759 239,1760 239,1767 238,1768 239,1769 238,1770 238,1775 237,1776 237,1777 239,1779 236,1782 236,1785 235,1786 235,1794 230,1799 229,1799 228,1798 227,1798 227,1799 226,1800 225,1800 225,1805 226,1806 226,1809 227,1810 227,1812 225,1814 225,1817 224,1818 224,1826 225,1827 225,1830 224,1831 224,1834 223,1835 223,1837 222,1838 222,1843 223,1844 223,1845 224,1846 224,1849 223,1850 223,1852 222,1853 222,1869 221,1870 221,1874 220,1875 220,1886 219,1887 219,1905 218,1906 218,1933 219,1934 219,2180 218,2181 218,2213 219,2214 219,2235 220,2236 219,2237 219,2256 220,2257 220,2258 219,2259 220,2260 220,2269 221,2270 221,2274 222,2275 222,2278 223,2279 223,2282 224,2283 224,2298 223,2299 223,2300 222,2301 222,2305 223,2306 223,2309 224,2310 224,2312 225,2313 225,2314 226,2315 226,2316 229,2319 229,2321 231,2323 230,2324 231,2325 231,2327 232,2328 232,2330 233,2331 233,2333 234,2334 234,2337 235,2338 235,2345 236,2346 236,2351 237,2352 237,2359 238,2360 238,2368 239,2369 239,2372 240,2373 240,2378 241,2379 241,2388 242,2389 242,2391 243,2392 243,2393 244,2394 244,2404 245,2405 245,2409 246,2410 246,2414 245,2415 245,2422 246,2423 246,2426 247,2427 247,2435 246,2436 246,2443 247,2444 247,2446 248,2447 248,2450 249,2451 249,2452 251,2454 251,2455 254,2458 254,2459 256,2461 256,2462 257,2463 257,2465 258,2466 258,2467 259,2468 258,2469 260,2471 260,2472 261,2473 261,2474 263,2476 263,2478 264,2479 264,2483 265,2484 265,2488 266,2489 266,2491 269,2494 269,2495 270,2496 270,2497 271,2498 271,2499 272,2500 272,2503 273,2504 273,2506 276,2509 274,2511 274,2513 275,2513 276,2514 275,2515 275,2517 276,2518 276,2520 275,2521 274,2520 274,2527 273,2528 273,2536 274,2537 274,2541 273,2542 273,2544 272,2545 273,2546 273,2547 274,2548 275,2548 276,2549 277,2549 281,2553 281,2554 282,2555 282,2558 283,2559 283,2563 284,2564 284,2568 285,2569 285,2572 286,2573 286,2577 287,2578 286,2579 286,2580 287,2581 287,2585 286,2586 286,2589 287,2590 287,2596 288,2597 288,2598 289,2599 291,2599 293,2601 294,2601 295,2602 295,2603 297,2605 297,2607 298,2608 298,2609 299,2610 299,2611 300,2612 300,2613 301,2614 301,2616 302,2617 302,2630 301,2631 296,2631 296,2632 295,2633 295,2638 296,2639 296,2640 300,2644 301,2643 302,2643 302,2642 303,2641 304,2641 304,2640 306,2638 307,2639 308,2639 310,2641 310,2642 311,2643 311,2644 312,2645 312,2647 313,2648 313,2651 314,2652 314,2655 315,2656 315,2658 316,2659 316,2661 318,2663 318,2664 319,2665 319,2667 320,2668 320,2669 321,2669 322,2670 321,2671 321,2672 322,2673 322,2676 323,2677 323,2678 324,2679 324,2681 325,2682 325,2684 326,2685 326,2687 327,2688 327,2690 328,2691 328,2692 329,2693 329,2694 330,2694 331,2695 331,2696 333,2698 333,2699 334,2700 333,2701 333,2702 335,2704 334,2705 334,2706 335,2707 335,2720 337,2722 337,2723 339,2725 339,2727 340,2728 340,2733 341,2734 341,2742 343,2742 348,2747 348,2748 349,2749 349,2753 350,2754 351,2754 352,2755 354,2755 355,2756 354,2757 355,2758 355,2759 356,2760 356,2761 357,2762 357,2765 358,2766 358,2773 356,2775 356,2777 354,2779 354,2785 355,2786 355,2787 356,2788 356,2789 357,2790 357,2791 358,2792 358,2793 361,2796 362,2795 363,2796 364,2796 366,2798 367,2798 368,2799 367,2800 369,2802 369,2806 370,2807 370,2810 371,2811 371,2812 373,2814 373,2815 374,2816 374,2822 373,2823 373,2824 374,2825 374,2827 381,2834 381,2835 383,2837 383,2839 384,2840 384,2842 387,2845 387,2847 389,2849 389,2850 390,2851 389,2852 392,2855 392,2857 394,2859 394,2860 395,2861 396,2861 398,2863 398,2864 400,2866 400,2870 401,2871 401,2872 400,2873 400,2874 401,2875 401,2877 403,2879 403,2881 404,2882 404,2883 406,2885 406,2886 410,2890 410,2891 411,2892 410,2893 411,2894 411,2899 412,2900 412,2903 413,2904 413,2905 414,2906 414,2907 415,2908 415,2909 416,2910 416,2911 418,2913 419,2913 420,2914 423,2914 426,2917 426,2918 427,2919 427,2929 426,2930 426,2932 425,2933 425,2938 426,2939 426,2940 430,2944 430,2945 431,2945 433,2947 434,2947 435,2948 440,2948 442,2950 442,2954 444,2956 444,2958 447,2961 449,2961 450,2962 451,2962 455,2966 455,2967 456,2968 456,2970 457,2971 457,2972 458,2973 458,2974 459,2975 459,2976 460,2977 460,2978 463,2981 463,2982 464,2983 464,2984 465,2985 465,2986 466,2987 466,2989 467,2990 467,2993 468,2994 468,2998 467,2999 467,3000 468,3001 469,3001 470,3002 472,3000 473,3000 474,3001 474,3002 475,3003 474,3004 474,3006 473,3007 472,3006 472,3005 471,3006 471,3007 470,3008 470,3012 471,3013 471,3017 472,3018 472,3020 473,3021 473,3023 477,3027 479,3027 480,3026 484,3026 485,3027 485,3028 486,3028 489,3031 491,3031 492,3032 494,3032 495,3033 495,3034 503,3042 503,3043 504,3044 504,3045 513,3054 514,3053 515,3054 515,3058 516,3059 516,3063 517,3064 517,3065 519,3067 519,3069 520,3070 520,3075 521,3076 521,3079 522,3080 522,3081 525,3084 526,3084 527,3085 527,3086 528,3087 528,3091 529,3092 529,3096 528,3097 528,3099 527,3100 527,3102 528,3103 528,3104 530,3106 531,3106 532,3105 535,3105 536,3104 540,3104 541,3105 544,3105 546,3107 546,3108 548,3110 548,3111 549,3112 549,3113 550,3113 551,3114 552,3114 553,3115 554,3115 557,3118 557,3120 559,3122 559,3123 561,3125 561,3126 562,3127 562,3129 563,3130 563,3136 564,3137 564,3139 568,3143 567,3144 568,3145 569,3144 570,3145 571,3145 575,3149 575,3150 576,3151 576,3153 577,3154 577,3156 578,3157 578,3158 577,3159 577,3160 575,3162 574,3162 573,3163 568,3163 567,3164 565,3164 564,3165 564,3169 565,3170 565,3171 566,3172 566,3173 568,3175 568,3176 571,3179 577,3179 578,3178 579,3178 580,3177 581,3177 582,3176 582,3175 583,3174 585,3174 586,3175 585,3176 586,3177 586,3178 587,3179 587,3182 586,3183 587,3182 588,3183 588,3184 589,3185 589,3186 590,3187 590,3188 591,3189 591,3190 592,3191 593,3191 598,3196 599,3196 602,3199 603,3199 604,3200 605,3200 606,3201 607,3201 609,3203 610,3203 613,3206 613,3209 614,3210 614,3214 615,3215 615,3216 618,3216 618,3215 619,3214 621,3214 622,3213 627,3213 629,3215 630,3215 632,3217 633,3217 639,3223 639,3224 640,3225 640,3229 641,3230 641,3232 644,3235 644,3236 646,3238 646,3239 649,3242 650,3242 652,3244 652,3245 654,3247 654,3249 655,3250 655,3251 656,3252 656,3254 657,3255 657,3256 659,3258 659,3259 660,3260 661,3260 667,3266 667,3267 673,3273 673,3274 675,3276 675,3277 677,3279 678,3279 680,3281 683,3281 684,3282 685,3281 686,3282 687,3282 690,3285 690,3286 691,3287 691,3288 692,3289 692,3290 693,3291 693,3292 695,3294 695,3295 697,3297 697,3298 701,3302 702,3302 705,3305 705,3307 706,3308 706,3309 707,3310 709,3310 710,3311 711,3311 713,3313 714,3313 719,3318 720,3318 722,3320 723,3320 727,3324 727,3325 728,3326 728,3327 730,3329 730,3330 733,3333 734,3333 735,3334 736,3334 741,3339 741,3340 742,3341 742,3344 741,3345 741,3347 740,3348 738,3348 738,3349 737,3350 738,3351 738,3353 739,3354 739,3355 740,3356 740,3357 741,3358 742,3358 741,3357 741,3356 742,3355 742,3353 743,3352 744,3352 745,3351 748,3351 753,3356 753,3357 754,3358 754,3359 756,3361 757,3361 759,3363 760,3363 762,3365 762,3366 765,3369 765,3370 766,3371 766,3372 768,3374 768,3376 772,3380 773,3380 774,3381 776,3381 777,3382 778,3382 779,3383 782,3383 784,3385 785,3385 797,3397 798,3397 801,3400 802,3399 803,3400 804,3400 805,3401 806,3401 807,3402 808,3402 811,3405 812,3405 813,3406 815,3406 816,3407 818,3407 820,3409 821,3409 822,3410 822,3411 825,3414 825,3415 826,3416 826,3417 827,3418 827,3420 829,3422 831,3422 832,3423 833,3423 838,3428 838,3429 842,3433 843,3433 846,3436 846,3438 847,3439 847,3443 852,3448 853,3448 855,3450 855,3453 859,3457 858,3458 860,3460 860,3461 861,3462 862,3462 864,3464 866,3464 867,3465 870,3465 871,3466 873,3466 874,3465 875,3465 876,3466 876,3467 877,3468 876,3469 877,3470 877,3471 876,3472 876,3473 878,3475 877,3476 878,3477 878,3481 879,3482 879,3484 880,3485 882,3485 883,3486 884,3485 888,3485 889,3484 890,3484 891,3483 892,3483 892,3482 894,3480 895,3481 896,3481 897,3482 899,3482 900,3483 900,3484 903,3484 904,3485 903,3486 904,3487 903,3488 903,3490 902,3491 902,3495 903,3496 903,3497 905,3499 907,3499 911,3495 912,3495 913,3494 915,3496 916,3496 917,3497 919,3497 920,3498 921,3498 922,3499 922,3503 921,3504 920,3504 918,3506 917,3506 919,3508 920,3508 921,3509 922,3509 923,3508 924,3509 925,3508 926,3509 929,3509 930,3510 931,3510 933,3512 933,3513 934,3512 935,3513 935,3514 936,3513 937,3514 937,3515 938,3514 940,3516 942,3516 945,3519 946,3519 947,3520 948,3520 949,3521 951,3521 953,3523 954,3523 957,3526 958,3526 962,3530 962,3531 963,3532 963,3534 961,3536 961,3537 960,3538 959,3538 959,3539 957,3541 956,3541 955,3542 955,3544 957,3544 960,3547 963,3547 966,3550 966,3549 967,3548 968,3549 968,3550 969,3551 969,3552 970,3553 971,3553 973,3555 976,3555 978,3557 980,3557 981,3558 983,3558 984,3559 986,3559 987,3560 988,3559 989,3560 993,3560 994,3561 1005,3561 1009,3565 1009,3569 1011,3571 1012,3571 1013,3572 1019,3572 1020,3571 1024,3575 1023,3576 1024,3577 1024,3578 1025,3579 1025,3580 1026,3581 1026,3582 1028,3584 1028,3583 1029,3582 1030,3583 1031,3583 1032,3584 1033,3584 1035,3586 1036,3586 1037,3587 1039,3587 1040,3588 1043,3588 1044,3587 1046,3587 1047,3588 1048,3588 1050,3590 1050,3591 1054,3595 1054,3596 1062,3604 1069,3604 1070,3605 1081,3605 1082,3606 1084,3606 1085,3607 1086,3607 1090,3611 1092,3611 1093,3612 1097,3612 1098,3613 1097,3614 1098,3615 1098,3616 1099,3616 1101,3618 1102,3618 1103,3619 1105,3619 1107,3621 1109,3621 1111,3623 1112,3623 1113,3624 1114,3624 1115,3625 1116,3625 1117,3624 1118,3625 1119,3625 1120,3626 1120,3627 1124,3631 1126,3631 1127,3632 1128,3632 1130,3634 1131,3634 1132,3635 1132,3636 1134,3636 1135,3637 1135,3638 1137,3638 1140,3641 1141,3641 1142,3642 1143,3642 1144,3643 1145,3643 1146,3644 1147,3644 1148,3645 1149,3645 1150,3646 1151,3646 1153,3648 1154,3648 1156,3650 1157,3650 1158,3651 1159,3651 1166,3658 1166,3659 1168,3661 1168,3663 1169,3663 1170,3664 1169,3665 1170,3664 1171,3665 1172,3664 1173,3665 1178,3665 1179,3666 1181,3666 1182,3667 1183,3667 1185,3669 1186,3669 1187,3670 1192,3670 1193,3671 1193,3672 1197,3676 1197,3678 1199,3680 1200,3680 1202,3682 1203,3682 1204,3683 1205,3683 1206,3684 1208,3684 1209,3685 1213,3685 1214,3686 1219,3686 1220,3687 1222,3687 1223,3688 1230,3688 1231,3689 1232,3689 1233,3690 1234,3690 1239,3695 1241,3695 1242,3696 1247,3696 1248,3697 1249,3697 1251,3699 1253,3699 1254,3700 1257,3700 1258,3701 1260,3701 1265,3706 1265,3707 1266,3708 1266,3709 1269,3712 1270,3712 1271,3713 1275,3713 1276,3712 1278,3712 1279,3713 1281,3713 1283,3715 1284,3715 1285,3716 1286,3716 1291,3721 1292,3721 1294,3723 1294,3725 1293,3726 1293,3729 1296,3732 1300,3732 1301,3733 1302,3733 1303,3732 1313,3732 1314,3733 1319,3733 1320,3734 1322,3734 1325,3737 1324,3738 1324,3739 1326,3741 1327,3741 1329,3743 1346,3743 1347,3744 1348,3743 1349,3744 1351,3744 1352,3745 1354,3745 1358,3749 1357,3750 1356,3750 1355,3751 1354,3751 1351,3754 1351,3756 1353,3758 1354,3758 1355,3759 1364,3759 1365,3758 1372,3758 1373,3757 1376,3757 1377,3756 1378,3756 1379,3755 1384,3755 1385,3754 1386,3755 1387,3755 1388,3756 1389,3755 1390,3756 1393,3756 1394,3757 1395,3757 1396,3758 1396,3759 1395,3760 1395,3761 1393,3763 1391,3763 1390,3764 1389,3764 1388,3765 1388,3766 1389,3767 1390,3767 1391,3768 1392,3768 1394,3770 1403,3770 1404,3769 1405,3769 1406,3768 1406,3767 1407,3766 1407,3765 1408,3764 1413,3764 1414,3765 1417,3765 1418,3766 1419,3766 1420,3767 1423,3767 1424,3768 1426,3768 1427,3769 1431,3769 1432,3770 1435,3770 1436,3771 1438,3771 1439,3772 1441,3772 1443,3774 1444,3774 1445,3775 1446,3775 1447,3776 1454,3776 1455,3777 1459,3777 1460,3778 1462,3778 1463,3779 1464,3779 1465,3780 1467,3780 1468,3781 1470,3781 1471,3782 1473,3782 1474,3783 1475,3783 1479,3787 1480,3787 1483,3790 1484,3790 1485,3791 1486,3790 1487,3791 1488,3791 1489,3792 1491,3792 1492,3793 1493,3793 1494,3794 1495,3794 1496,3795 1499,3795 1500,3796 1503,3796 1504,3797 1507,3797 1508,3798 1511,3798 1512,3797 1513,3798 1517,3798 1518,3799 1519,3799 1521,3801 1522,3801 1523,3802 1525,3802 1527,3804 1535,3804 1536,3805 1539,3805 1540,3806 1543,3806 1544,3807 1547,3807 1548,3808 1550,3808 1551,3809 1553,3809 1554,3810 1556,3810 1557,3811 1559,3811 1560,3812 1561,3812 1562,3813 1564,3813 1565,3814 1566,3814 1567,3815 1569,3815 1570,3816 1575,3816 1576,3817 1582,3817 1583,3818 1590,3818 1591,3819 1594,3819 1595,3820 1598,3820 1599,3821 1601,3821 1602,3820 1603,3821 1605,3821 1606,3822 1607,3822 1608,3823 1609,3823 1610,3824 1618,3824 1619,3825 1626,3825 1627,3826 1631,3826 1632,3827 1636,3827 1637,3828 1641,3828 1642,3829 1646,3829 1647,3828 1649,3830 1650,3830 1651,3831 1653,3831 1654,3832 1656,3832 1659,3835 1660,3835 1661,3836 1663,3836 1664,3837 1672,3837 1673,3838 1677,3838 1678,3839 1683,3839 1684,3838 1689,3838 1690,3839 1693,3839 1694,3840 1697,3840 1697,3839 1698,3838 1699,3839 1700,3839 1699,3838 1700,3837 1701,3837 1702,3838 1702,3839 1703,3839 1704,3838 1705,3839 1705,3840 1706,3840 1707,3841 1709,3841 1710,3842 1711,3841 1712,3842 1713,3842 1714,3843 1716,3843 1717,3844 1718,3844 1719,3845 1720,3845 1722,3847 1722,3848 1723,3847 1724,3847 1725,3848 1726,3848 1727,3849 1728,3849 1729,3850 1731,3850 1732,3851 1739,3851 1740,3850 1749,3850 1750,3851 1751,3851 1752,3850 1757,3850 1758,3851 1759,3851 1760,3852 1762,3852 1763,3853 1766,3853 1767,3854 1773,3854 1774,3855 1776,3855 1777,3854 1778,3855 1779,3855 1780,3856 1785,3856 1786,3857 1789,3857 1790,3858 1796,3858 1797,3859 1798,3859 1799,3858 1800,3858 1801,3859 1804,3859 1805,3858 1807,3858 1808,3859 1815,3859 1816,3858 1820,3858 1821,3859 1823,3859 1824,3860 1825,3860 1826,3859 1828,3859 1829,3860 1834,3860 1835,3861 1837,3861 1838,3862 1841,3862 1842,3863 1846,3863 1847,3864 1893,3864 1894,3865 1902,3865 1903,3866 1922,3866 1923,3867 1932,3867 1933,3866 1942,3866 1943,3867 1944,3867 1945,3866 1967,3866 1968,3867 1969,3867 1970,3866 1993,3866 1994,3867 2003,3867 2004,3866 2101,3866 2102,3865 2107,3865 2108,3866 2124,3866 2125,3865 2135,3865 2136,3864 2148,3864 2149,3865 2150,3865 2151,3864 2183,3864 2184,3863 2188,3863 2189,3864 2197,3864 2198,3863 2199,3863 2200,3864 2201,3864 2202,3863 2209,3863 2210,3864 2214,3864 2215,3863 2226,3863 2227,3862 2230,3862 2235,3857 2235,3856 2236,3855 2240,3855 2241,3854 2246,3854 2246,3853 2247,3852 2245,3852 2244,3851 2245,3850 2246,3850 2247,3849 2248,3849 2250,3851 2250,3850 2251,3849 2253,3849 2254,3850 2253,3851 2252,3851 2255,3851 2256,3850 2258,3850 2259,3851 2260,3851 2261,3852 2263,3852 2264,3851 2274,3851 2275,3852 2278,3852 2279,3853 2280,3852 2295,3852 2296,3851 2302,3851 2303,3852 2305,3852 2306,3851 2307,3851 2308,3850 2308,3848 2307,3848 2306,3847 2307,3846 2306,3846 2304,3844 2304,3841 2305,3840 2306,3841 2305,3840 2304,3841 2303,3840 2303,3839 2304,3838 2306,3838 2307,3839 2308,3838 2311,3838 2312,3839 2313,3839 2313,3838 2314,3837 2324,3837 2325,3838 2325,3839 2325,3838 2326,3837 2327,3837 2328,3838 2332,3838 2332,3837 2333,3836 2334,3836 2335,3837 2341,3837 2342,3836 2345,3836 2346,3835 2357,3835 2358,3834 2359,3835 2363,3835 2364,3834 2368,3834 2369,3833 2371,3833 2372,3832 2374,3832 2375,3831 2381,3831 2382,3830 2386,3830 2387,3829 2398,3829 2399,3828 2402,3828 2403,3827 2404,3827 2405,3826 2406,3826 2407,3825 2409,3825 2410,3824 2411,3824 2412,3823 2417,3823 2418,3822 2421,3822 2422,3823 2432,3823 2433,3822 2438,3822 2440,3820 2441,3821 2442,3820 2444,3820 2445,3819 2447,3819 2447,3818 2448,3817 2449,3818 2449,3817 2450,3816 2451,3816 2452,3817 2453,3816 2454,3816 2455,3815 2459,3815 2460,3814 2461,3814 2462,3813 2463,3813 2464,3812 2466,3812 2467,3811 2470,3811 2471,3810 2475,3810 2476,3811 2477,3810 2480,3810 2481,3809 2482,3809 2483,3808 2484,3808 2486,3806 2488,3806 2489,3805 2492,3805 2493,3804 2496,3804 2497,3803 2499,3803 2501,3801 2502,3801 2504,3799 2505,3799 2506,3798 2508,3798 2509,3797 2511,3797 2512,3796 2525,3796 2526,3795 2543,3795 2544,3794 2546,3794 2550,3790 2550,3789 2551,3788 2554,3788 2555,3787 2557,3787 2558,3786 2561,3786 2562,3785 2565,3785 2566,3784 2567,3785 2568,3784 2569,3784 2570,3783 2571,3783 2573,3781 2574,3781 2575,3780 2576,3780 2577,3779 2579,3779 2580,3780 2583,3780 2584,3781 2589,3781 2590,3782 2591,3781 2590,3780 2591,3779 2590,3778 2590,3776 2589,3775 2591,3773 2592,3773 2593,3772 2599,3772 2600,3771 2601,3772 2602,3771 2605,3771 2606,3770 2609,3770 2610,3769 2615,3769 2616,3768 2621,3768 2622,3767 2624,3767 2625,3766 2629,3766 2630,3765 2631,3765 2632,3764 2633,3765 2634,3764 2637,3764 2638,3763 2640,3763 2642,3761 2646,3761 2647,3760 2648,3760 2649,3759 2651,3759 2653,3757 2654,3757 2655,3756 2656,3756 2657,3755 2659,3755 2660,3754 2661,3754 2662,3753 2666,3753 2667,3752 2669,3752 2669,3750 2670,3749 2670,3747 2671,3746 2672,3746 2673,3745 2678,3745 2679,3746 2682,3746 2683,3745 2686,3745 2687,3744 2692,3744 2693,3743 2700,3743 2703,3746 2704,3746 2705,3745 2706,3745 2706,3744 2707,3743 2707,3740 2710,3737 2712,3737 2713,3736 2714,3736 2715,3737 2716,3736 2728,3736 2731,3733 2736,3733 2737,3734 2739,3734 2740,3735 2747,3735 2749,3733 2750,3733 2750,3732 2751,3731 2751,3724 2750,3723 2750,3722 2751,3721 2751,3720 2757,3714 2757,3713 2758,3712 2759,3713 2760,3712 2760,3711 2761,3710 2762,3711 2763,3710 2763,3709 2764,3708 2765,3708 2766,3707 2767,3707 2768,3706 2769,3706 2770,3705 2772,3705 2773,3704 2774,3704 2775,3703 2779,3703 2780,3702 2781,3702 2782,3701 2786,3701 2787,3700 2788,3700 2790,3698 2790,3697 2791,3696 2791,3695 2792,3694 2792,3693 2793,3692 2794,3692 2795,3691 2796,3691 2797,3690 2798,3690 2799,3689 2800,3689 2801,3688 2802,3688 2804,3686 2805,3686 2806,3685 2807,3685 2808,3684 2809,3684 2811,3682 2812,3682 2813,3681 2814,3681 2816,3679 2817,3679 2818,3678 2818,3677 2820,3675 2821,3675 2822,3674 2823,3674 2823,3673 2824,3672 2825,3672 2826,3673 2827,3672 2833,3672 2834,3673 2835,3673 2836,3674 2838,3674 2839,3675 2840,3675 2841,3674 2843,3674 2845,3672 2846,3672 2846,3671 2847,3670 2848,3670 2849,3669 2850,3669 2849,3668 2853,3664 2853,3663 2854,3662 2862,3662 2863,3661 2864,3661 2865,3660 2866,3660 2867,3659 2868,3659 2869,3658 2870,3658 2871,3657 2872,3657 2873,3656 2874,3656 2878,3652 2879,3652 2881,3650 2882,3650 2884,3648 2885,3648 2887,3646 2888,3646 2892,3642 2894,3642 2895,3641 2896,3641 2897,3642 2898,3642 2899,3641 2903,3641 2904,3640 2905,3640 2906,3639 2907,3639 2908,3638 2909,3638 2910,3637 2910,3636 2911,3635 2912,3636 2912,3635 2920,3627 2921,3627 2924,3624 2925,3624 2926,3623 2927,3623 2928,3622 2929,3622 2930,3621 2932,3621 2933,3620 2934,3620 2935,3619 2936,3619 2937,3618 2938,3618 2939,3617 2939,3616 2940,3615 2940,3614 2947,3607 2948,3607 2949,3606 2950,3606 2953,3603 2954,3603 2955,3602 2956,3602 2957,3601 2963,3601 2964,3602 2970,3602 2971,3601 2971,3597 2975,3593 2976,3593 2977,3592 2979,3592 2980,3591 2982,3591 2984,3589 2985,3589 2988,3586 2989,3586 2990,3585 2992,3585 2993,3584 2996,3584 2997,3583 3000,3583 3000,3582 3009,3573 3010,3573 3013,3570 3014,3570 3015,3569 3024,3569 3025,3568 3025,3566 3026,3565 3026,3563 3031,3558 3032,3558 3035,3555 3035,3554 3036,3553 3037,3553 3039,3551 3040,3551 3041,3550 3041,3549 3044,3546 3045,3546 3046,3545 3047,3545 3048,3544 3051,3544 3052,3543 3060,3543 3061,3542 3063,3542 3064,3541 3064,3540 3066,3538 3067,3538 3068,3537 3069,3537 3070,3536 3071,3536 3072,3535 3072,3533 3074,3531 3074,3530 3075,3529 3075,3528 3076,3527 3076,3525 3077,3524 3077,3522 3080,3519 3081,3519 3082,3518 3083,3518 3084,3517 3085,3517 3089,3513 3090,3513 3093,3510 3094,3510 3096,3508 3097,3508 3098,3507 3099,3507 3101,3505 3103,3505 3104,3504 3107,3504 3108,3503 3111,3503 3114,3500 3116,3500 3117,3499 3118,3499 3119,3498 3120,3498 3121,3497 3123,3497 3127,3493 3127,3492 3130,3489 3130,3488 3131,3487 3131,3486 3132,3485 3133,3485 3133,3484 3136,3481 3136,3476 3140,3472 3141,3472 3141,3471 3142,3470 3143,3470 3144,3469 3145,3469 3148,3466 3148,3465 3149,3464 3150,3465 3152,3463 3153,3463 3154,3462 3155,3462 3156,3461 3157,3461 3158,3460 3159,3460 3163,3456 3163,3455 3164,3454 3164,3453 3165,3452 3165,3450 3166,3449 3168,3449 3170,3447 3171,3447 3172,3446 3173,3446 3174,3445 3175,3445 3178,3442 3179,3442 3182,3439 3183,3439 3183,3438 3186,3435 3187,3435 3190,3432 3191,3432 3194,3429 3195,3429 3197,3427 3199,3427 3200,3426 3205,3426 3206,3427 3209,3427 3211,3425 3211,3415 3212,3414 3213,3414 3216,3411 3217,3411 3218,3410 3221,3410 3222,3409 3224,3409 3225,3408 3226,3408 3228,3406 3229,3406 3230,3405 3231,3405 3232,3404 3232,3403 3233,3402 3233,3401 3235,3399 3235,3398 3236,3397 3236,3395 3237,3394 3236,3393 3238,3391 3246,3391 3247,3390 3248,3390 3249,3389 3250,3389 3250,3388 3252,3386 3251,3385 3253,3383 3254,3384 3254,3385 3255,3384 3256,3385 3258,3383 3259,3383 3261,3381 3262,3381 3264,3379 3264,3378 3267,3375 3267,3374 3268,3373 3268,3372 3269,3371 3269,3370 3271,3368 3272,3368 3276,3364 3277,3364 3277,3363 3278,3362 3280,3362 3281,3361 3284,3361 3285,3360 3286,3360 3287,3361 3290,3361 3291,3360 3292,3360 3292,3358 3292,3359 3291,3360 3290,3360 3289,3359 3290,3358 3290,3354 3291,3353 3291,3351 3293,3349 3295,3349 3296,3348 3297,3348 3300,3345 3300,3343 3301,3342 3301,3341 3306,3336 3307,3336 3308,3335 3309,3336 3315,3330 3315,3329 3316,3328 3316,3327 3317,3326 3317,3325 3319,3323 3319,3322 3324,3317 3325,3317 3328,3314 3329,3314 3332,3311 3332,3309 3333,3308 3333,3307 3334,3306 3334,3305 3338,3301 3339,3301 3339,3300 3340,3299 3340,3297 3341,3296 3341,3295 3342,3294 3342,3293 3343,3292 3343,3291 3345,3289 3345,3286 3344,3286 3343,3285 3342,3285 3341,3284 3340,3285 3338,3283 3338,3281 3340,3279 3341,3279 3342,3278 3344,3280 3345,3279 3346,3279 3347,3278 3350,3278 3351,3277 3352,3277 3355,3274 3355,3273 3357,3271 3358,3271 3359,3270 3362,3270 3363,3269 3364,3269 3365,3268 3366,3268 3368,3266 3368,3265 3372,3261 3373,3261 3375,3259 3376,3259 3376,3258 3377,3257 3377,3254 3378,3253 3378,3251 3379,3250 3379,3249 3381,3247 3381,3246 3382,3245 3382,3244 3385,3241 3385,3240 3387,3238 3387,3237 3390,3234 3390,3233 3397,3226 3397,3225 3398,3224 3398,3223 3399,3222 3399,3221 3401,3219 3401,3218 3402,3217 3403,3217 3405,3215 3406,3215 3417,3204 3418,3204 3419,3203 3422,3203 3423,3202 3426,3202 3428,3200 3428,3199 3429,3198 3429,3197 3430,3196 3429,3195 3429,3186 3430,3185 3430,3183 3431,3182 3432,3182 3434,3180 3434,3179 3435,3178 3437,3178 3438,3177 3443,3177 3443,3176 3446,3173 3446,3170 3447,3169 3447,3168 3448,3167 3448,3166 3449,3165 3449,3164 3450,3163 3450,3162 3452,3160 3452,3159 3457,3154 3457,3151 3458,3150 3458,3148 3459,3147 3459,3146 3460,3145 3460,3144 3463,3141 3465,3141 3469,3137 3470,3137 3471,3136 3472,3136 3475,3133 3475,3132 3476,3131 3476,3129 3477,3128 3477,3124 3481,3120 3482,3120 3483,3119 3485,3119 3488,3116 3488,3115 3492,3111 3494,3111 3495,3110 3498,3110 3499,3109 3499,3107 3498,3106 3498,3094 3499,3093 3499,3089 3501,3087 3506,3087 3509,3084 3509,3082 3511,3080 3511,3079 3514,3076 3516,3076 3520,3072 3520,3071 3521,3070 3521,3069 3522,3068 3522,3066 3523,3065 3523,3064 3524,3063 3524,3062 3527,3059 3528,3059 3529,3058 3531,3058 3532,3057 3533,3057 3535,3055 3535,3053 3536,3052 3536,3049 3537,3048 3537,3046 3538,3045 3538,3044 3539,3043 3539,3041 3540,3040 3540,3038 3542,3036 3542,3035 3543,3034 3544,3034 3545,3033 3545,3032 3546,3031 3546,3026 3550,3022 3551,3022 3551,3021 3553,3019 3553,3018 3554,3017 3554,3016 3555,3015 3555,3014 3556,3013 3556,3010 3557,3009 3557,3006 3558,3005 3558,3002 3559,3001 3559,2999 3560,2998 3560,2997 3562,2995 3562,2994 3564,2992 3564,2991 3565,2990 3565,2988 3567,2986 3567,2985 3568,2984 3568,2983 3569,2982 3569,2981 3570,2980 3570,2979 3572,2977 3572,2976 3574,2974 3574,2973 3575,2972 3575,2971 3576,2970 3576,2969 3577,2968 3577,2967 3586,2958 3586,2957 3591,2952 3591,2951 3593,2949 3593,2948 3594,2947 3594,2946 3595,2945 3595,2944 3596,2943 3597,2943 3597,2942 3596,2941 3597,2940 3597,2939 3598,2938 3598,2935 3599,2934 3599,2932 3600,2931 3600,2930 3601,2929 3601,2928 3603,2926 3603,2925 3605,2923 3605,2922 3607,2920 3607,2919 3609,2917 3610,2917 3611,2916 3611,2915 3612,2914 3612,2913 3615,2910 3614,2909 3615,2908 3614,2907 3614,2905 3615,2904 3615,2902 3616,2901 3616,2900 3618,2898 3618,2897 3622,2893 3623,2894 3624,2893 3625,2893 3627,2891 3628,2891 3630,2889 3631,2889 3633,2887 3634,2887 3638,2883 3637,2882 3638,2881 3638,2877 3637,2876 3637,2872 3636,2871 3636,2868 3637,2867 3636,2866 3639,2863 3639,2862 3640,2861 3640,2860 3641,2859 3641,2858 3642,2857 3642,2855 3643,2854 3643,2849 3644,2848 3644,2847 3646,2845 3646,2844 3648,2842 3648,2841 3650,2839 3650,2838 3651,2837 3651,2836 3652,2835 3652,2834 3653,2833 3653,2832 3654,2831 3654,2830 3657,2827 3657,2823 3658,2822 3658,2818 3659,2817 3659,2816 3660,2815 3660,2814 3661,2813 3661,2812 3662,2811 3662,2808 3663,2807 3663,2806 3671,2798 3672,2798 3673,2797 3674,2798 3675,2797 3676,2798 3677,2797 3678,2797 3679,2796 3680,2796 3682,2794 3682,2793 3683,2792 3684,2792 3684,2789 3685,2788 3685,2787 3684,2787 3683,2786 3683,2781 3682,2780 3683,2779 3683,2771 3684,2770 3684,2769 3685,2768 3686,2768 3687,2767 3687,2766 3688,2765 3688,2764 3689,2763 3689,2762 3690,2761 3691,2762 3690,2761 3690,2760 3691,2759 3691,2758 3695,2754 3696,2754 3697,2753 3697,2752 3698,2751 3698,2750 3699,2749 3699,2748 3698,2747 3698,2742 3697,2741 3697,2740 3696,2739 3696,2738 3695,2738 3692,2735 3692,2734 3694,2732 3694,2727 3695,2726 3695,2724 3699,2720 3700,2720 3702,2718 3702,2717 3705,2714 3705,2712 3706,2711 3706,2710 3707,2709 3707,2708 3708,2707 3708,2706 3709,2705 3709,2704 3710,2703 3710,2702 3711,2701 3711,2700 3713,2698 3713,2688 3714,2687 3714,2683 3715,2682 3715,2675 3716,2674 3716,2671 3717,2670 3717,2666 3718,2665 3718,2662 3719,2661 3719,2657 3720,2656 3720,2653 3721,2652 3721,2647 3722,2646 3722,2640 3721,2639 3721,2637 3722,2636 3723,2637 3723,2636 3725,2634 3725,2633 3727,2631 3727,2630 3730,2627 3730,2625 3731,2624 3731,2619 3732,2618 3732,2616 3733,2615 3733,2614 3735,2612 3735,2610 3736,2609 3736,2607 3737,2606 3737,2603 3738,2602 3738,2600 3739,2599 3739,2598 3742,2595 3742,2594 3743,2593 3743,2587 3744,2586 3744,2580 3745,2579 3745,2577 3746,2576 3746,2572 3747,2571 3747,2569 3748,2568 3748,2566 3749,2565 3749,2563 3750,2562 3751,2562 3750,2561 3751,2560 3752,2560 3752,2559 3753,2558 3753,2557 3755,2555 3755,2553 3756,2552 3756,2548 3757,2547 3757,2546 3756,2545 3757,2544 3757,2542 3758,2541 3758,2538 3759,2537 3759,2534 3760,2533 3760,2529 3761,2528 3761,2522 3762,2521 3762,2519 3763,2518 3763,2516 3764,2515 3764,2514 3765,2513 3765,2512 3766,2511 3766,2503 3767,2502 3766,2501 3767,2500 3767,2499 3768,2498 3768,2496 3769,2495 3769,2493 3770,2492 3770,2489 3771,2488 3771,2486 3772,2485 3772,2484 3773,2483 3774,2483 3775,2482 3775,2481 3777,2479 3777,2476 3778,2475 3777,2474 3778,2473 3778,2472 3779,2471 3779,2470 3780,2469 3780,2468 3781,2467 3781,2466 3782,2465 3783,2465 3782,2464 3784,2462 3784,2455 3783,2454 3783,2453 3782,2452 3782,2450 3781,2449 3781,2444 3782,2443 3782,2439 3783,2438 3783,2437 3784,2436 3784,2435 3786,2433 3785,2432 3787,2430 3786,2429 3786,2424 3787,2423 3787,2420 3788,2419 3788,2417 3789,2416 3789,2413 3790,2412 3790,2405 3791,2404 3790,2403 3791,2402 3791,2400 3792,2399 3792,2396 3791,2395 3792,2394 3792,2387 3793,2386 3793,2382 3794,2381 3794,2374 3795,2373 3795,2370 3796,2369 3796,2367 3797,2366 3797,2357 3798,2356 3798,2355 3799,2354 3799,2353 3800,2352 3800,2351 3801,2350 3801,2346 3802,2345 3802,2340 3801,2339 3801,2317 3802,2316 3801,2315 3802,2314 3802,2306 3803,2305 3803,2303 3801,2301 3802,2300 3803,2300 3803,2298 3804,2297 3804,2282 3803,2281 3805,2279 3805,2276 3806,2275 3806,2273 3807,2272 3810,2272 3811,2273 3810,2274 3812,2274 3813,2275 3813,2277 3814,2277 3814,2275 3815,2274 3815,2272 3816,2271 3816,2253 3817,2252 3817,2249 3816,2248 3816,2235 3817,2234 3816,2233 3816,2231 3817,2230 3817,2219 3818,2218 3818,2208 3817,2207 3817,2205 3818,2204 3818,2200 3817,2199 3818,2198 3818,2144 3817,2143 3818,2142 3818,2136 3817,2135 3817,2117 3816,2116 3816,2110 3817,2109 3817,2105 3816,2104 3816,2103 3817,2102 3817,2027 3818,2026 3817,2025 3818,2024 3818,1979 3817,1978 3817,1969 3816,1968 3816,1964 3817,1963 3817,1959 3816,1958 3817,1957 3817,1908 3816,1907 3816,1905 3815,1904 3815,1893 3814,1892 3814,1885 3813,1885 3812,1884 3813,1883 3813,1882 3812,1883 3811,1883 3810,1882 3810,1881 3809,1880 3809,1878 3808,1877 3809,1876 3809,1871 3810,1870 3811,1871 3811,1874 3812,1874 3813,1875 3813,1876 3813,1874 3814,1873 3814,1870 3813,1869 3813,1865 3813,1867 3812,1868 3811,1867 3811,1866 3810,1866 3810,1868 3809,1869 3808,1868 3808,1859 3807,1858 3807,1846 3806,1845 3806,1844 3805,1843 3805,1831 3804,1830 3804,1828 3805,1827 3805,1825 3804,1824 3804,1817 3803,1816 3803,1810 3802,1809 3802,1806 3801,1805 3801,1804 3800,1803 3800,1799 3799,1798 3799,1796 3798,1795 3798,1792 3797,1791 3797,1788 3796,1787 3796,1777 3795,1776 3795,1773 3794,1772 3794,1771 3793,1770 3794,1769 3794,1768 3793,1767 3793,1760 3792,1759 3792,1745 3791,1744 3791,1737 3792,1736 3792,1728 3791,1727 3791,1725 3790,1724 3790,1720 3789,1719 3789,1714 3788,1713 3788,1708 3787,1707 3787,1702 3788,1701 3788,1698 3789,1697 3789,1696 3786,1693 3785,1693 3784,1692 3784,1691 3783,1690 3783,1688 3782,1687 3782,1684 3781,1683 3781,1680 3780,1679 3780,1673 3779,1672 3779,1670 3778,1669 3778,1664 3777,1663 3777,1662 3776,1661 3776,1660 3774,1658 3774,1657 3773,1656 3773,1654 3772,1653 3772,1652 3771,1651 3771,1647 3772,1646 3770,1644 3770,1643 3771,1642 3770,1642 3769,1641 3769,1640 3768,1640 3767,1639 3767,1637 3766,1636 3766,1632 3767,1631 3767,1625 3766,1624 3766,1622 3765,1621 3765,1620 3764,1619 3764,1618 3763,1617 3763,1615 3762,1614 3762,1611 3761,1610 3761,1602 3762,1601 3762,1596 3763,1595 3763,1593 3762,1592 3762,1588 3761,1587 3761,1584 3760,1583 3760,1581 3759,1580 3759,1575 3758,1574 3758,1573 3757,1572 3757,1571 3756,1570 3756,1567 3755,1566 3755,1565 3754,1564 3754,1562 3752,1560 3752,1554 3751,1553 3751,1552 3750,1551 3750,1549 3749,1548 3749,1547 3748,1546 3748,1544 3747,1543 3747,1541 3748,1540 3747,1539 3747,1537 3745,1535 3744,1535 3741,1532 3741,1531 3738,1528 3738,1527 3737,1526 3737,1525 3736,1524 3736,1523 3735,1522 3735,1520 3734,1519 3734,1515 3733,1514 3733,1513 3732,1512 3732,1511 3731,1510 3731,1509 3730,1508 3730,1503 3729,1502 3729,1500 3728,1499 3729,1498 3728,1497 3728,1496 3727,1495 3726,1495 3725,1494 3725,1493 3724,1492 3724,1488 3723,1487 3723,1483 3722,1482 3722,1481 3721,1480 3721,1479 3720,1478 3720,1477 3719,1476 3719,1474 3718,1473 3718,1468 3719,1467 3719,1466 3718,1465 3718,1462 3717,1461 3717,1445 3719,1443 3719,1442 3720,1441 3720,1436 3719,1435 3719,1434 3718,1433 3718,1432 3716,1430 3716,1429 3715,1428 3715,1426 3714,1425 3714,1423 3713,1422 3713,1421 3711,1419 3709,1419 3708,1418 3708,1417 3702,1411 3701,1411 3699,1409 3699,1408 3698,1407 3698,1403 3697,1402 3697,1397 3696,1396 3696,1394 3695,1393 3695,1392 3694,1391 3694,1390 3693,1389 3693,1386 3692,1385 3692,1373 3691,1372 3691,1365 3690,1364 3690,1360 3691,1359 3691,1355 3692,1354 3690,1352 3690,1350 3689,1349 3689,1348 3688,1347 3688,1346 3685,1343 3684,1343 3676,1335 3676,1334 3675,1333 3675,1332 3674,1333 3673,1332 3672,1332 3671,1331 3669,1331 3668,1330 3666,1330 3665,1329 3665,1325 3666,1324 3666,1316 3664,1314 3657,1314 3654,1311 3654,1309 3653,1308 3653,1302 3648,1297 3648,1294 3647,1293 3647,1289 3646,1288 3645,1288 3644,1287 3644,1286 3641,1283 3641,1277 3640,1276 3640,1269 3641,1268 3641,1267 3640,1266 3640,1262 3639,1261 3639,1253 3638,1252 3637,1252 3636,1251 3635,1251 3635,1253 3634,1254 3633,1254 3632,1253 3631,1253 3627,1249 3627,1245 3625,1243 3626,1242 3625,1243 3624,1243 3620,1239 3619,1239 3618,1238 3618,1237 3617,1236 3617,1234 3619,1232 3621,1232 3622,1233 3625,1233 3626,1232 3627,1232 3627,1230 3628,1229 3628,1228 3629,1227 3629,1226 3628,1225 3628,1224 3627,1223 3626,1223 3625,1222 3622,1222 3621,1221 3619,1221 3616,1218 3616,1217 3615,1216 3614,1216 3613,1215 3612,1216 3611,1215 3609,1215 3608,1214 3607,1214 3605,1212 3605,1211 3601,1207 3601,1205 3600,1204 3600,1202 3599,1201 3599,1197 3598,1196 3598,1194 3599,1193 3598,1192 3598,1191 3599,1190 3598,1189 3596,1189 3595,1188 3594,1188 3592,1186 3592,1185 3591,1185 3590,1184 3590,1182 3589,1181 3589,1180 3586,1177 3585,1177 3580,1172 3580,1171 3579,1170 3579,1169 3578,1168 3578,1164 3577,1163 3577,1161 3574,1158 3573,1158 3572,1157 3571,1157 3569,1155 3568,1155 3567,1156 3566,1155 3566,1154 3567,1153 3566,1153 3565,1152 3566,1151 3565,1152 3563,1150 3564,1149 3565,1149 3565,1148 3564,1147 3564,1146 3563,1145 3563,1143 3562,1142 3562,1141 3561,1140 3561,1139 3560,1138 3560,1137 3559,1136 3559,1135 3558,1134 3558,1132 3557,1131 3557,1129 3556,1128 3556,1127 3554,1125 3554,1124 3553,1123 3553,1122 3551,1120 3551,1119 3550,1118 3550,1117 3549,1116 3550,1115 3549,1114 3549,1112 3548,1111 3548,1110 3547,1109 3547,1106 3546,1105 3545,1105 3544,1104 3544,1103 3542,1101 3542,1100 3541,1099 3541,1098 3540,1097 3540,1096 3539,1095 3539,1094 3538,1093 3538,1092 3537,1091 3537,1089 3536,1088 3536,1087 3535,1086 3535,1084 3534,1083 3534,1082 3530,1078 3529,1078 3524,1073 3523,1073 3521,1071 3521,1070 3520,1069 3520,1066 3521,1065 3521,1061 3522,1060 3522,1059 3521,1058 3521,1056 3519,1054 3519,1051 3518,1050 3518,1046 3517,1046 3516,1045 3515,1045 3513,1043 3513,1042 3511,1040 3511,1039 3510,1038 3510,1037 3509,1036 3509,1035 3507,1033 3507,1032 3505,1032 3502,1029 3502,1027 3501,1027 3500,1026 3500,1024 3499,1023 3499,1022 3497,1020 3495,1020 3494,1019 3492,1019 3491,1018 3487,1018 3485,1016 3485,1014 3484,1014 3482,1012 3482,1011 3480,1009 3480,1008 3478,1006 3478,1005 3477,1005 3476,1004 3476,1003 3474,1001 3474,998 3473,997 3473,996 3472,996 3471,995 3471,993 3460,982 3460,980 3457,977 3453,977 3453,978 3452,979 3450,979 3447,976 3447,975 3450,972 3450,970 3451,969 3450,968 3451,967 3450,966 3450,957 3447,954 3444,954 3442,952 3442,951 3441,950 3440,950 3438,948 3438,946 3437,945 3437,944 3434,941 3433,941 3431,939 3430,939 3428,937 3428,936 3427,935 3427,934 3426,933 3426,932 3425,932 3424,931 3425,930 3426,930 3425,929 3425,930 3424,931 3421,928 3422,927 3421,926 3420,926 3418,924 3418,923 3417,923 3416,922 3416,920 3414,918 3413,918 3409,914 3408,914 3403,909 3403,908 3397,902 3397,901 3396,900 3396,899 3395,899 3394,898 3393,898 3392,897 3391,897 3388,894 3388,893 3387,892 3387,891 3386,890 3386,889 3385,888 3385,887 3384,886 3384,885 3382,883 3382,882 3381,881 3381,880 3380,879 3380,878 3379,877 3380,876 3379,875 3378,875 3377,874 3376,874 3375,873 3373,873 3372,872 3371,872 3370,871 3367,871 3366,870 3364,870 3363,869 3361,869 3360,868 3360,865 3362,863 3362,861 3358,857 3358,856 3357,855 3357,851 3356,850 3356,848 3351,843 3351,842 3350,841 3349,841 3348,840 3347,840 3346,839 3345,839 3344,838 3342,838 3341,837 3341,836 3339,834 3339,833 3333,827 3331,827 3330,826 3329,826 3327,824 3326,824 3325,823 3324,823 3321,820 3321,818 3320,817 3320,816 3314,810 3314,806 3316,804 3317,804 3318,803 3319,804 3322,804 3323,803 3324,804 3325,803 3327,803 3328,802 3329,802 3329,801 3330,800 3330,797 3327,794 3326,794 3325,793 3323,793 3322,792 3321,792 3320,791 3319,791 3317,789 3316,789 3314,787 3313,787 3312,786 3312,787 3314,787 3315,788 3314,789 3313,789 3314,790 3311,793 3310,793 3310,794 3309,795 3308,794 3305,794 3304,793 3303,793 3302,792 3300,792 3292,784 3291,784 3286,779 3286,778 3285,777 3285,776 3284,776 3282,774 3280,774 3279,773 3277,773 3275,771 3275,767 3273,765 3270,765 3263,758 3263,757 3262,756 3262,755 3261,755 3260,754 3257,754 3251,748 3252,747 3255,747 3256,746 3259,746 3261,744 3261,740 3260,739 3260,738 3257,735 3256,735 3255,734 3254,734 3253,735 3253,736 3252,737 3252,744 3251,745 3252,746 3252,747 3251,748 3250,748 3249,747 3248,747 3247,746 3246,746 3245,745 3244,745 3243,744 3242,744 3238,740 3238,739 3236,737 3237,736 3236,735 3236,733 3237,732 3237,731 3239,729 3239,728 3240,727 3239,728 3238,727 3235,727 3235,728 3236,728 3237,729 3237,730 3236,731 3235,730 3234,730 3233,729 3232,730 3229,730 3228,729 3227,729 3226,728 3225,728 3224,727 3223,727 3218,722 3217,722 3216,721 3216,719 3215,718 3215,717 3214,716 3214,714 3213,713 3213,712 3216,709 3217,709 3219,707 3220,707 3223,704 3223,702 3224,701 3224,698 3223,697 3224,696 3223,697 3221,695 3218,695 3217,694 3216,695 3214,695 3213,696 3213,697 3212,698 3212,699 3207,704 3204,704 3203,703 3200,703 3198,701 3197,701 3194,698 3194,697 3193,696 3193,695 3190,692 3189,692 3188,691 3187,691 3186,690 3185,690 3181,686 3180,686 3172,678 3172,677 3171,677 3170,676 3170,674 3169,673 3168,673 3167,672 3166,672 3165,671 3163,671 3161,669 3159,669 3158,668 3157,668 3153,664 3153,665 3152,666 3149,663 3150,662 3153,662 3153,661 3155,659 3155,658 3156,657 3156,654 3155,653 3155,651 3153,649 3147,649 3146,648 3145,649 3138,649 3135,646 3135,644 3134,643 3134,639 3135,638 3136,638 3137,637 3137,636 3138,635 3137,634 3137,632 3133,628 3133,627 3132,626 3132,625 3129,622 3125,622 3124,621 3123,622 3118,622 3117,623 3117,625 3113,629 3107,629 3106,628 3105,628 3101,624 3100,624 3099,623 3098,623 3096,621 3096,618 3099,615 3100,615 3101,614 3103,614 3104,613 3110,613 3111,612 3112,613 3112,614 3112,611 3111,611 3109,609 3108,610 3107,610 3105,608 3106,607 3105,608 3099,602 3099,601 3098,601 3097,600 3096,600 3094,602 3093,602 3093,603 3090,606 3089,606 3088,605 3084,605 3083,606 3080,606 3078,604 3077,604 3076,603 3075,603 3073,601 3072,601 3067,596 3068,595 3067,596 3066,595 3064,595 3063,594 3062,594 3061,595 3060,594 3059,595 3057,595 3056,594 3057,593 3058,593 3057,592 3057,586 3056,585 3056,584 3053,581 3053,580 3054,579 3056,579 3058,577 3057,576 3057,575 3056,575 3055,574 3053,574 3053,576 3052,577 3051,577 3050,576 3048,576 3045,573 3044,573 3043,572 3041,572 3040,573 3039,573 3038,574 3037,574 3036,575 3032,575 3031,574 3030,574 3029,573 3028,573 3024,569 3022,569 3021,568 3019,568 3018,567 3016,567 3015,566 3014,566 3013,565 3012,565 3011,564 3010,564 3009,563 3008,563 3007,562 3005,562 3004,561 3003,561 3000,558 3000,557 2998,555 2998,554 2997,553 2996,553 2993,550 2992,550 2991,549 2990,549 2987,546 2988,545 2988,543 2989,542 2987,540 2987,539 2986,538 2986,537 2984,535 2984,534 2983,533 2983,532 2982,532 2979,529 2976,529 2974,527 2974,526 2971,523 2971,522 2969,522 2968,521 2967,522 2957,522 2956,521 2955,521 2954,520 2952,520 2951,519 2949,519 2948,518 2942,518 2941,517 2940,517 2939,516 2938,516 2937,515 2936,515 2935,514 2934,514 2933,513 2930,513 2929,512 2928,512 2927,511 2926,511 2925,510 2924,510 2923,509 2922,509 2921,508 2920,508 2919,507 2918,507 2916,505 2915,505 2913,503 2912,503 2911,502 2911,501 2910,500 2909,500 2908,499 2908,496 2909,495 2908,494 2908,492 2909,491 2908,492 2906,490 2905,490 2904,489 2899,489 2898,488 2897,488 2896,487 2893,487 2892,486 2892,484 2893,483 2893,482 2894,481 2901,481 2902,480 2901,479 2901,477 2900,476 2899,476 2898,475 2897,475 2896,474 2892,474 2892,475 2891,476 2889,476 2888,477 2886,477 2885,478 2884,477 2883,477 2882,476 2872,476 2871,475 2868,475 2867,474 2865,474 2864,473 2863,473 2862,472 2861,472 2859,470 2857,470 2851,464 2850,464 2849,463 2848,463 2847,462 2846,462 2845,461 2844,461 2843,460 2843,459 2842,459 2841,458 2841,457 2840,456 2839,456 2838,455 2837,455 2836,454 2835,454 2832,451 2831,451 2830,450 2829,450 2828,449 2825,449 2824,448 2823,448 2820,445 2819,445 2818,444 2817,445 2816,444 2814,444 2813,443 2812,443 2811,442 2810,442 2808,440 2807,440 2804,437 2804,436 2803,436 2802,435 2801,435 2800,434 2798,434 2797,433 2795,433 2794,432 2793,432 2792,431 2790,431 2788,429 2787,429 2786,428 2785,428 2782,425 2780,425 2779,424 2775,424 2774,423 2771,423 2767,419 2767,417 2765,415 2764,415 2762,413 2760,413 2759,412 2752,412 2751,411 2750,412 2749,411 2746,411 2745,410 2744,410 2742,408 2741,408 2740,407 2739,407 2738,406 2735,406 2734,405 2732,405 2731,404 2728,404 2727,403 2723,403 2722,402 2714,402 2713,403 2704,403 2703,402 2701,402 2699,400 2699,399 2697,397 2697,396 2695,394 2695,393 2693,393 2691,391 2690,391 2688,389 2683,389 2682,388 2679,388 2678,387 2671,387 2670,386 2669,387 2668,387 2666,385 2665,386 2664,385 2663,386 2658,386 2657,385 2658,384 2661,384 2658,384 2657,383 2655,383 2654,382 2653,382 2652,381 2651,381 2649,379 2648,379 2645,376 2644,376 2643,375 2641,375 2640,374 2638,374 2637,373 2635,373 2634,372 2632,372 2631,371 2628,371 2627,370 2625,370 2624,369 2622,369 2621,368 2616,368 2615,367 2614,368 2613,368 2612,369 2611,368 2611,367 2610,366 2611,365 2609,363 2608,363 2607,362 2606,362 2605,361 2602,361 2601,360 2599,360 2598,359 2594,359 2593,358 2592,358 2591,357 2590,357 2588,355 2588,354 2589,353 2590,353 2592,351 2594,351 2596,349 2596,347 2594,345 2593,345 2592,344 2590,344 2589,345 2588,345 2587,346 2587,347 2586,348 2586,349 2585,350 2586,351 2586,353 2585,354 2583,354 2582,355 2580,353 2579,353 2578,352 2577,352 2576,351 2574,351 2573,350 2570,350 2569,349 2563,349 2562,348 2561,348 2560,347 2557,347 2556,348 2555,348 2554,347 2554,346 2553,345 2554,344 2553,343 2553,340 2554,339 2554,336 2553,337 2552,336 2551,336 2550,335 2549,336 2544,336 2543,337 2542,336 2533,336 2532,337 2531,336 2527,336 2526,335 2524,335 2523,334 2522,334 2521,333 2520,333 2519,332 2518,332 2517,331 2516,331 2515,330 2511,330 2510,329 2509,329 2508,328 2507,328 2506,327 2505,327 2503,325 2502,325 2501,324 2500,324 2498,322 2497,322 2496,321 2488,321 2487,322 2483,322 2482,323 2476,323 2475,324 2474,323 2472,323 2470,325 2469,324 2469,323 2469,324 2468,325 2467,324 2462,324 2461,323 2460,324 2459,324 2458,323 2454,323 2452,321 2451,321 2449,319 2453,315 2454,315 2454,314 2455,313 2456,313 2454,311 2455,310 2450,310 2449,311 2443,311 2442,312 2440,312 2439,311 2436,311 2435,310 2434,311 2433,311 2432,310 2431,310 2429,312 2428,311 2428,310 2427,309 2425,309 2424,308 2418,308 2417,307 2414,307 2413,306 2411,306 2410,305 2409,305 2407,303 2407,302 2402,297 2402,296 2401,295 2401,294 2400,293 2400,292 2399,291 2398,291 2397,290 2396,290 2397,290 2398,291 2397,292 2396,292 2395,293 2394,293 2393,292 2391,292 2390,291 2387,291 2386,290 2383,290 2382,289 2379,289 2378,288 2370,288 2368,290 2365,290 2364,291 2356,291 2355,290 2353,290 2352,291 2351,290 2347,290 2346,289 2337,289 2336,288 2334,288 2333,287 2331,287 2330,286 2329,286 2328,285 2319,285 2318,286 2317,286 2316,287 2314,287 2313,286 2308,286 2307,287 2306,286 2304,286 2303,285 2301,285 2300,284 2298,284 2297,283 2296,283 2295,282 2294,282 2292,280 2284,280 2283,279 2276,279 2275,278 2261,278 2260,277 2257,277 2256,276 2254,276 2253,275 2252,275 2250,273 2251,272 2252,272 2249,269 2246,269 2245,268 2241,268 2240,267 2122,267 2121,266 2120,267 2119,266 Z" fill="#000066" stroke="#000066" /></svg>